<svg data-source-digest="acfacce1c76daf98" id="d-architecture-light" xmlns="http://www.w3.org/2000/svg" class="flowchart" viewBox="0 0 1232.2994384765625 173.39999389648438" role="graphics-document document" aria-roledescription="flowchart-v2" width="1233" height="174"><style>#d-architecture-light{font-family:Inter,system-ui,sans-serif;font-size:17px;fill:#0f1116;}@keyframes edge-animation-frame{from{stroke-dashoffset:0;}}@keyframes dash{to{stroke-dashoffset:0;}}#d-architecture-light .edge-animation-slow{stroke-dasharray:9,5!important;stroke-dashoffset:900;animation:dash 50s linear infinite;stroke-linecap:round;}#d-architecture-light .edge-animation-fast{stroke-dasharray:9,5!important;stroke-dashoffset:900;animation:dash 20s linear infinite;stroke-linecap:round;}#d-architecture-light .error-icon{fill:#fcfcfd;}#d-architecture-light .error-text{fill:#030302;stroke:#030302;}#d-architecture-light .edge-thickness-normal{stroke-width:1px;}#d-architecture-light .edge-thickness-thick{stroke-width:3.5px;}#d-architecture-light .edge-pattern-solid{stroke-dasharray:0;}#d-architecture-light .edge-thickness-invisible{stroke-width:0;fill:none;}#d-architecture-light .edge-pattern-dashed{stroke-dasharray:3;}#d-architecture-light .edge-pattern-dotted{stroke-dasharray:2;}#d-architecture-light .marker{fill:#5a6270;stroke:#5a6270;}#d-architecture-light .marker.cross{stroke:#5a6270;}#d-architecture-light svg{font-family:Inter,system-ui,sans-serif;font-size:17px;}#d-architecture-light p{margin:0;}#d-architecture-light .label{font-family:Inter,system-ui,sans-serif;color:#0f1116;}#d-architecture-light .cluster-label text{fill:#030302;}#d-architecture-light .cluster-label span{color:#030302;}#d-architecture-light .cluster-label span p{background-color:transparent;}#d-architecture-light .label text,#d-architecture-light span{fill:#0f1116;color:#0f1116;}#d-architecture-light .node rect,#d-architecture-light .node circle,#d-architecture-light .node ellipse,#d-architecture-light .node polygon,#d-architecture-light .node path{fill:#f4f6f9;stroke:#868a93;stroke-width:1px;}#d-architecture-light .rough-node .label text,#d-architecture-light .node .label text,#d-architecture-light .image-shape .label,#d-architecture-light .icon-shape .label{text-anchor:middle;}#d-architecture-light .node .katex path{fill:#000;stroke:#000;stroke-width:1px;}#d-architecture-light .rough-node .label,#d-architecture-light .node .label,#d-architecture-light .image-shape .label,#d-architecture-light .icon-shape .label{text-align:center;}#d-architecture-light .node.clickable{cursor:pointer;}#d-architecture-light .root .anchor path{fill:#5a6270!important;stroke-width:0;stroke:#5a6270;}#d-architecture-light .arrowheadPath{fill:rgba(255, 255, 255, 0);}#d-architecture-light .edgePaths .path{stroke:#5a6270;stroke-width:1px;}#d-architecture-light .flowchart-link{stroke:#5a6270;fill:none;}#d-architecture-light .edgeLabel{background-color:#ffffff;text-align:center;}#d-architecture-light .edgeLabel p{background-color:#ffffff;}#d-architecture-light .edgeLabel rect{opacity:0.5;background-color:#ffffff;fill:#ffffff;}#d-architecture-light .labelBkg{background-color:rgba(255, 255, 255, 0.5);}#d-architecture-light .cluster rect{fill:#fcfcfd;stroke:hsl(240, 0%, 89.0196078431%);stroke-width:1px;}#d-architecture-light .cluster text{fill:#030302;}#d-architecture-light .cluster span{color:#030302;}#d-architecture-light .node .collapsed-indicator{fill:hsl(240, 0%, 89.0196078431%);stroke:none;opacity:0.6;}#d-architecture-light .node .collapsed-separator{stroke:hsl(240, 0%, 89.0196078431%);stroke-width:0.75px;}#d-architecture-light div.mermaidTooltip{position:absolute;text-align:center;max-width:200px;padding:2px;font-family:Inter,system-ui,sans-serif;font-size:12px;background:#fcfcfd;border:1px solid hsl(240, 0%, 89.0196078431%);border-radius:2px;pointer-events:none;z-index:100;}#d-architecture-light .flowchartTitleText{text-anchor:middle;font-size:18px;fill:#0f1116;}#d-architecture-light rect.text{fill:none;stroke-width:0;}#d-architecture-light .icon-shape,#d-architecture-light .image-shape{background-color:#ffffff;text-align:center;}#d-architecture-light .icon-shape p,#d-architecture-light .image-shape p{background-color:#ffffff;padding:2px;}#d-architecture-light .icon-shape .label rect,#d-architecture-light .image-shape .label rect{opacity:0.5;background-color:#ffffff;fill:#ffffff;}#d-architecture-light .label-icon{display:inline-block;height:1em;overflow:visible;vertical-align:-0.125em;}#d-architecture-light .node .label-icon path{fill:currentColor;stroke:revert;stroke-width:revert;}#d-architecture-light .node .neo-node{stroke:#868a93;}#d-architecture-light [data-look="neo"].node rect,#d-architecture-light [data-look="neo"].cluster rect,#d-architecture-light [data-look="neo"].node polygon{stroke:url(#d-architecture-light-gradient);filter:drop-shadow( 1px 2px 2px rgba(185,185,185,1));}#d-architecture-light [data-look="neo"].swimlane.cluster rect{filter:none;}#d-architecture-light [data-look="neo"].node path{stroke:url(#d-architecture-light-gradient);stroke-width:1px;}#d-architecture-light [data-look="neo"].node .outer-path{filter:drop-shadow( 1px 2px 2px rgba(185,185,185,1));}#d-architecture-light [data-look="neo"].node .neo-line path{stroke:#868a93;filter:none;}#d-architecture-light [data-look="neo"].node circle{stroke:url(#d-architecture-light-gradient);filter:drop-shadow( 1px 2px 2px rgba(185,185,185,1));}#d-architecture-light [data-look="neo"].node circle .state-start{fill:#000000;}#d-architecture-light [data-look="neo"].icon-shape .icon{fill:url(#d-architecture-light-gradient);filter:drop-shadow( 1px 2px 2px rgba(185,185,185,1));}#d-architecture-light [data-look="neo"].icon-shape .icon-neo path{stroke:url(#d-architecture-light-gradient);filter:drop-shadow( 1px 2px 2px rgba(185,185,185,1));}#d-architecture-light :root{--mermaid-font-family:"trebuchet ms",verdana,arial,sans-serif;}</style><g><marker id="d-architecture-light_flowchart-v2-pointEnd" class="marker flowchart-v2" viewBox="0 0 10 10" refX="5" refY="5" markerUnits="userSpaceOnUse" markerWidth="8" markerHeight="8" orient="auto"><path d="M 0 0 L 10 5 L 0 10 z" class="arrowMarkerPath" style="stroke-width: 1; stroke-dasharray: 1, 0;"></path></marker><marker id="d-architecture-light_flowchart-v2-pointStart" class="marker flowchart-v2" viewBox="0 0 10 10" refX="4.5" refY="5" markerUnits="userSpaceOnUse" markerWidth="8" markerHeight="8" orient="auto"><path d="M 0 5 L 10 10 L 10 0 z" class="arrowMarkerPath" style="stroke-width: 1; stroke-dasharray: 1, 0;"></path></marker><marker id="d-architecture-light_flowchart-v2-pointEnd-margin" class="marker flowchart-v2" viewBox="0 0 11.5 14" refX="11.5" refY="7" markerUnits="userSpaceOnUse" markerWidth="10.5" markerHeight="14" orient="auto"><path d="M 0 0 L 11.5 7 L 0 14 z" class="arrowMarkerPath" style="stroke-width: 0; stroke-dasharray: 1, 0;"></path></marker><marker id="d-architecture-light_flowchart-v2-pointStart-margin" class="marker flowchart-v2" viewBox="0 0 11.5 14" refX="1" refY="7" markerUnits="userSpaceOnUse" markerWidth="11.5" markerHeight="14" orient="auto"><polygon points="0,7 11.5,14 11.5,0" class="arrowMarkerPath" style="stroke-width: 0; stroke-dasharray: 1, 0;"></polygon></marker><marker id="d-architecture-light_flowchart-v2-circleEnd" class="marker flowchart-v2" viewBox="0 0 10 10" refX="11" refY="5" markerUnits="userSpaceOnUse" markerWidth="11" markerHeight="11" orient="auto"><circle cx="5" cy="5" r="5" class="arrowMarkerPath" style="stroke-width: 1; stroke-dasharray: 1, 0;"></circle></marker><marker id="d-architecture-light_flowchart-v2-circleStart" class="marker flowchart-v2" viewBox="0 0 10 10" refX="-1" refY="5" markerUnits="userSpaceOnUse" markerWidth="11" markerHeight="11" orient="auto"><circle cx="5" cy="5" r="5" class="arrowMarkerPath" style="stroke-width: 1; stroke-dasharray: 1, 0;"></circle></marker><marker id="d-architecture-light_flowchart-v2-circleEnd-margin" class="marker flowchart-v2" viewBox="0 0 10 10" refY="5" refX="12.25" markerUnits="userSpaceOnUse" markerWidth="14" markerHeight="14" orient="auto"><circle cx="5" cy="5" r="5" class="arrowMarkerPath" style="stroke-width: 0; stroke-dasharray: 1, 0;"></circle></marker><marker id="d-architecture-light_flowchart-v2-circleStart-margin" class="marker flowchart-v2" viewBox="0 0 10 10" refX="-2" refY="5" markerUnits="userSpaceOnUse" markerWidth="14" markerHeight="14" orient="auto"><circle cx="5" cy="5" r="5" class="arrowMarkerPath" style="stroke-width: 0; stroke-dasharray: 1, 0;"></circle></marker><marker id="d-architecture-light_flowchart-v2-crossEnd" class="marker cross flowchart-v2" viewBox="0 0 11 11" refX="12" refY="5.2" markerUnits="userSpaceOnUse" markerWidth="11" markerHeight="11" orient="auto"><path d="M 1,1 l 9,9 M 10,1 l -9,9" class="arrowMarkerPath" style="stroke-width: 2; stroke-dasharray: 1, 0;"></path></marker><marker id="d-architecture-light_flowchart-v2-crossStart" class="marker cross flowchart-v2" viewBox="0 0 11 11" refX="-1" refY="5.2" markerUnits="userSpaceOnUse" markerWidth="11" markerHeight="11" orient="auto"><path d="M 1,1 l 9,9 M 10,1 l -9,9" class="arrowMarkerPath" style="stroke-width: 2; stroke-dasharray: 1, 0;"></path></marker><marker id="d-architecture-light_flowchart-v2-crossEnd-margin" class="marker cross flowchart-v2" viewBox="0 0 15 15" refX="17.7" refY="7.5" markerUnits="userSpaceOnUse" markerWidth="12" markerHeight="12" orient="auto"><path d="M 1,1 L 14,14 M 1,14 L 14,1" class="arrowMarkerPath" style="stroke-width: 2.5;"></path></marker><marker id="d-architecture-light_flowchart-v2-crossStart-margin" class="marker cross flowchart-v2" viewBox="0 0 15 15" refX="-3.5" refY="7.5" markerUnits="userSpaceOnUse" markerWidth="12" markerHeight="12" orient="auto"><path d="M 1,1 L 14,14 M 1,14 L 14,1" class="arrowMarkerPath" style="stroke-width: 2.5; stroke-dasharray: 1, 0;"></path></marker><g class="root"><g class="clusters"><g class="cluster" id="d-architecture-light-root" data-look="classic"><rect style="" x="708.7759628295898" y="8" width="290.71875" height="157.39999389648438"></rect><g class="cluster-label" transform="translate(838.0934295654297, 8)"><g><rect class="background" style="stroke: none"></rect><text y="-10.1" style=""><tspan class="text-outer-tspan row" x="0" y="-0.1em" dy="1.1em"><tspan font-style="normal" class="text-inner-tspan" font-weight="normal">root</tspan></tspan></text></g></g></g><g class="cluster" id="d-architecture-light-unpriv" data-look="classic"><rect style="" x="263.37264251708984" y="8" width="258.484375" height="157.39999389648438"></rect><g class="cluster-label" transform="translate(342.26326751708984, 8)"><g><rect class="background" style="stroke: none"></rect><text y="-10.1" style=""><tspan class="text-outer-tspan row" x="0" y="-0.1em" dy="1.1em"><tspan font-style="normal" class="text-inner-tspan" font-weight="normal">Unprivileged</tspan></tspan></text></g></g></g></g><g class="edgePaths"><path d="M97.607,87.2L111.379,87.117C125.151,87.033,152.696,86.867,180.323,86.783C207.951,86.7,235.662,86.7,253.017,86.7C270.373,86.7,277.373,86.7,280.873,86.7L284.373,86.7" id="d-architecture-light-L_B_W_0" class="edge-thickness-normal edge-pattern-solid edge-thickness-normal edge-pattern-solid flowchart-link" style=";" data-edge="true" data-et="edge" data-id="L_B_W_0" data-points="W3sieCI6OTcuNjA3MDE3NTY3MDI0OTEsInkiOjg3LjE5OTk5Njk0ODI0MjE5fSx7IngiOjE4MC4yMzk4MzAwMTcwODk4NCwieSI6ODYuNjk5OTk2OTQ4MjQyMTl9LHsieCI6MjYzLjM3MjY0MjUxNzA4OTg0LCJ5Ijo4Ni42OTk5OTY5NDgyNDIxOX0seyJ4IjoyODguMzcyNjQyNTE3MDg5ODQsInkiOjg2LjY5OTk5Njk0ODI0MjE5fV0=" data-look="classic" marker-end="url(#d-architecture-light_flowchart-v2-pointEnd)"></path><path d="M500.857,86.7L504.357,86.7C507.857,86.7,514.857,86.7,533.934,86.7C553.01,86.7,584.163,86.7,615.316,86.7C646.47,86.7,677.623,86.7,696.699,86.7C715.776,86.7,722.776,86.7,726.276,86.7L729.776,86.7" id="d-architecture-light-L_W_C_0" class="edge-thickness-normal edge-pattern-solid edge-thickness-normal edge-pattern-solid flowchart-link" style=";" data-edge="true" data-et="edge" data-id="L_W_C_0" data-points="W3sieCI6NDk2Ljg1NzAxNzUxNzA4OTg0LCJ5Ijo4Ni42OTk5OTY5NDgyNDIxOX0seyJ4Ijo1MjEuODU3MDE3NTE3MDg5OCwieSI6ODYuNjk5OTk2OTQ4MjQyMTl9LHsieCI6NjE1LjMxNjQ5MDE3MzMzOTgsInkiOjg2LjY5OTk5Njk0ODI0MjE5fSx7IngiOjcwOC43NzU5NjI4Mjk1ODk4LCJ5Ijo4Ni42OTk5OTY5NDgyNDIxOX0seyJ4Ijo3MzMuNzc1OTYyODI5NTg5OCwieSI6ODYuNjk5OTk2OTQ4MjQyMTl9XQ==" data-look="classic" marker-start="url(#d-architecture-light_flowchart-v2-pointStart)" marker-end="url(#d-architecture-light_flowchart-v2-pointEnd)"></path><path d="M974.495,86.7L978.661,86.7C982.828,86.7,991.161,86.7,1004.258,86.7C1017.355,86.7,1035.216,86.7,1052.41,86.7C1069.604,86.7,1086.131,86.7,1094.395,86.7L1102.659,86.7" id="d-architecture-light-L_C_N_0" class="edge-thickness-normal edge-pattern-solid edge-thickness-normal edge-pattern-solid flowchart-link" style=";" data-edge="true" data-et="edge" data-id="L_C_N_0" data-points="W3sieCI6OTc0LjQ5NDcxMjgyOTU4OTgsInkiOjg2LjY5OTk5Njk0ODI0MjE5fSx7IngiOjk5OS40OTQ3MTI4Mjk1ODk4LCJ5Ijo4Ni42OTk5OTY5NDgyNDIxOX0seyJ4IjoxMDUzLjA3Njc0NDA3OTU4OTgsInkiOjg2LjY5OTk5Njk0ODI0MjE5fSx7IngiOjExMDYuNjU4Nzc1MzI5NTg5OCwieSI6ODYuNjk5OTk2OTQ4MjQyMTl9XQ==" data-look="classic" marker-end="url(#d-architecture-light_flowchart-v2-pointEnd)"></path></g><g class="edgeLabels"><g class="edgeLabel" transform="translate(180.23983001708984, 86.69999694824219)"><g class="label" data-id="L_B_W_0" transform="translate(0, -11)"><g><rect class="background" style="" x="-58.1328125" y="-1" width="116.265625" height="24"></rect><text y="-10.1" text-anchor="middle" style=""><tspan class="text-outer-tspan row" x="0" y="-0.1em" dy="1.1em" text-anchor="middle"><tspan font-style="normal" class="text-inner-tspan" font-weight="normal">HTTPS</tspan><tspan font-style="normal" class="text-inner-tspan" font-weight="normal"> :12227</tspan></tspan></text></g></g></g><g class="edgeLabel" transform="translate(615.3164901733398, 86.69999694824219)"><g class="label" data-id="L_W_C_0" transform="translate(-0.24072265625, -20.350000381469727)"><g><rect class="background" style="" x="-68.21875" y="-1" width="136.9189453125" height="42.70000076293945"></rect><text y="-10.1" text-anchor="middle" style=""><tspan class="text-outer-tspan row" x="0" y="-0.1em" dy="1.1em" text-anchor="middle"><tspan font-style="normal" class="text-inner-tspan" font-weight="normal">typed</tspan><tspan font-style="normal" class="text-inner-tspan" font-weight="normal"> JSON</tspan></tspan><tspan class="text-outer-tspan row" x="0" y="1em" dy="1.1em" text-anchor="middle"><tspan font-style="normal" class="text-inner-tspan" font-weight="normal">over</tspan><tspan font-style="normal" class="text-inner-tspan" font-weight="normal"> Unix</tspan><tspan font-style="normal" class="text-inner-tspan" font-weight="normal"> socket</tspan></tspan></text></g></g></g><g class="edgeLabel" transform="translate(1053.0767440795898, 86.69999694824219)"><g class="label" data-id="L_C_N_0" transform="translate(-0.38671875, -11)"><g><rect class="background" style="" x="-28.1953125" y="-1" width="57.1640625" height="24"></rect><text y="-10.1" text-anchor="middle" style=""><tspan class="text-outer-tspan row" x="0" y="-0.1em" dy="1.1em" text-anchor="middle"><tspan font-style="normal" class="text-inner-tspan" font-weight="normal">netlink</tspan></tspan></text></g></g></g></g><g class="nodes"><g class="node default" id="d-architecture-light-flowchart-W-0" data-look="classic" transform="translate(392.61483001708984, 86.69999694824219)"><rect class="basic label-container" style="" x="-104.2421875" y="-43.69999885559082" width="208.484375" height="87.39999771118164"></rect><g class="label" style="" transform="translate(0, -28.69999885559082)"><rect></rect><g><rect class="background" style="stroke: none"></rect><text y="-10.1" style=""><tspan class="text-outer-tspan row" x="0" y="-0.1em" dy="1.1em"><tspan font-style="normal" class="text-inner-tspan" font-weight="normal">easywall-web</tspan></tspan><tspan class="text-outer-tspan row" x="0" y="1em" dy="1.1em"><tspan font-style="normal" class="text-inner-tspan" font-weight="normal">HTTPS</tspan><tspan font-style="normal" class="text-inner-tspan" font-weight="normal"> ·</tspan><tspan font-style="normal" class="text-inner-tspan" font-weight="normal"> sessions</tspan><tspan font-style="normal" class="text-inner-tspan" font-weight="normal"> ·</tspan></tspan><tspan class="text-outer-tspan row" x="0" y="2.1em" dy="1.1em"><tspan font-style="normal" class="text-inner-tspan" font-weight="normal">templates</tspan></tspan></text></g></g></g><g class="node default" id="d-architecture-light-flowchart-C-1" data-look="classic" transform="translate(854.1353378295898, 86.69999694824219)"><rect class="basic label-container" style="" x="-120.359375" y="-43.69999885559082" width="240.71875" height="87.39999771118164"></rect><g class="label" style="" transform="translate(0, -28.69999885559082)"><rect></rect><g><rect class="background" style="stroke: none"></rect><text y="-10.1" style=""><tspan class="text-outer-tspan row" x="0" y="-0.1em" dy="1.1em"><tspan font-style="normal" class="text-inner-tspan" font-weight="normal">easywall-core</tspan></tspan><tspan class="text-outer-tspan row" x="0" y="1em" dy="1.1em"><tspan font-style="normal" class="text-inner-tspan" font-weight="normal">rule</tspan><tspan font-style="normal" class="text-inner-tspan" font-weight="normal"> state</tspan><tspan font-style="normal" class="text-inner-tspan" font-weight="normal"> ·</tspan><tspan font-style="normal" class="text-inner-tspan" font-weight="normal"> acceptance</tspan></tspan><tspan class="text-outer-tspan row" x="0" y="2.1em" dy="1.1em"><tspan font-style="normal" class="text-inner-tspan" font-weight="normal">timer</tspan></tspan></text></g></g></g><g class="node default" id="d-architecture-light-flowchart-B-2" data-look="classic" transform="translate(52.55350875854492, 86.69999694824219)"><g class="basic label-container outer-path"><path d="M-27.0625 -17.5 C-12.620137191574704 -17.5, 1.8222256168505915 -17.5, 27.0625 -17.5 C27.0625 -17.5, 27.0625 -17.5, 27.0625 -17.5 C27.377800021544626 -17.489888942003326, 27.693100043089252 -17.47977788400665, 28.183728849662476 -17.464044373130886 C28.51991644434652 -17.431612760196455, 28.856104039030562 -17.399181147262023, 29.300350329478853 -17.35632524190681 C29.72255775555967 -17.28806601952555, 30.14476518164049 -17.219806797144294, 30.407776002274012 -17.177285247343644 C30.64904933981087 -17.122216182506524, 30.890322677347726 -17.067147117669403, 31.501455218416375 -16.927660103183015 C31.866179284529924 -16.819411914836206, 32.23090335064347 -16.711163726489392, 32.576893815413364 -16.6084755726867 C32.95458761758869 -16.469480762122945, 33.332281419764016 -16.33048595155919, 33.629672585389045 -16.22104325355538 C34.03525693062056 -16.04150309515352, 34.44084127585208 -15.861962936751658, 34.655465434557264 -15.766955188292336 C34.91848948680579 -15.629735708709227, 35.181513539054315 -15.492516229126117, 35.65005716006891 -15.248077322159316 C36.01845238573472 -15.024753971430052, 36.38684761140053 -14.801430620700785, 36.6093607711846 -14.666541835607212 C36.90591643848908 -14.459677439783537, 37.20247210579356 -14.252813043959863, 37.52943428359628 -14.024738382689241 C37.73287379362622 -13.862500787193092, 37.93631330365615 -13.700263191696942, 38.406496917886294 -13.325304271459855 C38.63042180311243 -13.121941615425278, 38.85434668833856 -12.918578959390702, 39.23694463556101 -12.571113626710233 C39.41936479223021 -12.382749837975888, 39.60178494889941 -12.194386049241544, 40.01736494881802 -11.765265579573047 C40.16795126182741 -11.58837832770827, 40.318537574836796 -11.411491075843493, 40.74455094319052 -10.911071532527838 C41.01219991360181 -10.552446295499527, 41.2798488840131 -10.193821058471217, 41.415514455446726 -10.012041552137973 C41.64606173337589 -9.65785902262635, 41.87660901130505 -9.30367649311473, 42.027498352593554 -9.071869945434191 C42.14868406216482 -8.856692446706651, 42.26986977173609 -8.641514947979111, 42.577987861527504 -8.094420079214617 C42.71576079472363 -7.808331635564329, 42.85353372791975 -7.522243191914042, 43.06472090277671 -7.083708504641896 C43.19429258916004 -6.763663934176935, 43.32386427554338 -6.443619363711975, 43.48569738587081 -6.043888452372892 C43.61411750172399 -5.657107524389912, 43.74253761757717 -5.270326596406933, 43.83918742814156 -4.979232766043073 C43.92187191795138 -4.663920970713665, 44.00455640776119 -4.348609175384257, 44.12373846318191 -3.894116344235504 C44.196955540759376 -3.5181621253100257, 44.27017261833685 -3.142207906384547, 44.338181209752875 -2.792998163084143 C44.38921060682124 -2.3972242363161866, 44.44024000388959 -2.00145030954823, 44.48163447661097 -1.680402953384434 C44.49729720259072 -1.4364433535249608, 44.51295992857047 -1.1924837536654875, 44.55350878351204 -0.5609026075039654 C44.55350878351204 -0.20541333234431308, 44.55350878351204 0.1500759428153392, 44.55350878351204 0.5609026075039611 C44.537515609973894 0.8100091948178327, 44.52152243643575 1.0591157821317043, 44.48163447661097 1.680402953384422 C44.43282038402095 2.0589954160797372, 44.38400629143093 2.4375878787750525, 44.338181209752875 2.792998163084131 C44.280567348110324 3.0888331659246484, 44.22295348646778 3.384668168765166, 44.12373846318191 3.8941163442355 C44.01463880465618 4.310160626285204, 43.90553914613046 4.726204908334908, 43.83918742814156 4.979232766043061 C43.75238411598507 5.240670512028775, 43.6655808038286 5.502108258014488, 43.48569738587081 6.04388845237288 C43.365069576493056 6.341841473715973, 43.2444417671153 6.639794495059065, 43.06472090277672 7.0837085046418915 C42.9381975211617 7.346437013732167, 42.81167413954668 7.609165522822442, 42.577987861527504 8.094420079214613 C42.401953203984384 8.40698743912443, 42.22591854644126 8.719554799034247, 42.02749835259356 9.071869945434186 C41.85466549958717 9.33738761977134, 41.68183264658079 9.602905294108492, 41.41551445544673 10.012041552137964 C41.20936055708035 10.288268994942413, 41.003206658713964 10.564496437746865, 40.744550943190525 10.911071532527835 C40.58306226648225 11.100765321155386, 40.421573589773985 11.290459109782939, 40.01736494881803 11.765265579573038 C39.84336971809688 11.944929940566736, 39.66937448737573 12.124594301560434, 39.23694463556102 12.571113626710229 C38.956926248620114 12.825418916849431, 38.67690786167921 13.079724206988633, 38.40649691788631 13.325304271459842 C38.11795391058377 13.555409641331716, 37.82941090328124 13.78551501120359, 37.52943428359629 14.02473838268924 C37.19329855897003 14.25921211310752, 36.857162834343775 14.493685843525798, 36.60936077118461 14.666541835607207 C36.400500844781156 14.793153950390147, 36.1916409183777 14.919766065173087, 35.65005716006891 15.248077322159315 C35.40721859248792 15.37476604732079, 35.16438002490694 15.501454772482264, 34.65546543455727 15.766955188292332 C34.385253266733905 15.886570099428573, 34.11504109891053 16.006185010564813, 33.62967258538905 16.22104325355538 C33.29403261649838 16.34456186472901, 32.9583926476077 16.468080475902635, 32.57689381541337 16.608475572686697 C32.25674402903329 16.703494348783785, 31.936594242653214 16.79851312488087, 31.501455218416396 16.927660103183012 C31.099424531442235 17.019420983989452, 30.697393844468074 17.111181864795896, 30.40777600227402 17.177285247343644 C30.016797663972145 17.24049559299799, 29.625819325670275 17.303705938652342, 29.300350329478864 17.356325241906806 C28.929781049662417 17.392073614655935, 28.559211769845973 17.427821987405064, 28.183728849662476 17.464044373130886 C27.902705782185556 17.473056235926652, 27.621682714708637 17.48206809872242, 27.062500000000004 17.5 C27.062500000000004 17.5, 27.0625 17.5, 27.0625 17.5 C9.23573834802789 17.5, -8.591023303944219 17.5, -27.062499999999996 17.5 C-27.35163491531152 17.49072800603293, -27.64076983062305 17.481456012065863, -28.18372884966247 17.464044373130886 C-28.551334785221677 17.42858187063831, -28.918940720780885 17.393119368145733, -29.30035032947886 17.356325241906806 C-29.64415553689547 17.300741482220893, -29.987960744312087 17.245157722534977, -30.407776002274012 17.177285247343644 C-30.81071514840451 17.08531701666302, -31.213654294535 16.993348785982395, -31.501455218416375 16.927660103183015 C-31.836779284754446 16.82813768044582, -32.17210335109252 16.728615257708622, -32.57689381541336 16.608475572686704 C-32.878987269447094 16.49730238908101, -33.18108072348083 16.386129205475317, -33.629672585389045 16.22104325355538 C-33.9655226914368 16.07237237424746, -34.30137279748456 15.923701494939543, -34.655465434557264 15.766955188292338 C-34.87707097895351 15.651343717725942, -35.09867652334975 15.535732247159546, -35.650057160068904 15.248077322159318 C-35.885222680391124 15.105518601753996, -36.120388200713336 14.962959881348672, -36.60936077118459 14.666541835607218 C-36.924017424237285 14.447050975704634, -37.23867407728997 14.227560115802051, -37.529434283596274 14.024738382689243 C-37.81448532420289 13.797417763332229, -38.09953636480951 13.570097143975214, -38.406496917886294 13.325304271459856 C-38.6030634320871 13.146787764127653, -38.7996299462879 12.968271256795449, -39.236944635561 12.571113626710241 C-39.46774912886587 12.332789037971658, -39.698553622170735 12.094464449233074, -40.01736494881803 11.765265579573043 C-40.294839847188406 11.439327775178198, -40.57231474555879 11.11338997078335, -40.74455094319052 10.91107153252784 C-40.8913192514873 10.7144153702781, -41.03808755978409 10.51775920802836, -41.415514455446726 10.012041552137974 C-41.57952085147415 9.760083685956072, -41.743527247501575 9.50812581977417, -42.027498352593554 9.071869945434198 C-42.17316137408521 8.8132305007954, -42.31882439557687 8.554591056156601, -42.577987861527504 8.094420079214618 C-42.7091532497631 7.8220523440536835, -42.84031863799869 7.549684608892749, -43.06472090277671 7.083708504641898 C-43.22281024170754 6.693224781033324, -43.38089958063836 6.3027410574247495, -43.48569738587081 6.043888452372894 C-43.559074852994165 5.822887212509048, -43.632452320117515 5.601885972645203, -43.83918742814156 4.979232766043068 C-43.92197431452196 4.663530488211064, -44.004761200902365 4.3478282103790615, -44.12373846318191 3.8941163442355062 C-44.17776316370977 3.6167109251494427, -44.23178786423763 3.339305506063379, -44.338181209752875 2.7929981630841447 C-44.36734925171084 2.566776589539527, -44.39651729366881 2.340555015994909, -44.481634476610964 1.680402953384444 C-44.50756048169447 1.276584497114279, -44.53348648677797 0.8727660408441141, -44.55350878351204 0.5609026075039676 C-44.55350878351204 0.11672786943565405, -44.55350878351204 -0.3274468686326595, -44.55350878351204 -0.560902607503959 C-44.529571369504815 -0.9337471525992904, -44.50563395549759 -1.306591697694622, -44.48163447661097 -1.6804029533844198 C-44.4315075584268 -2.0691774321412213, -44.38138064024263 -2.4579519108980223, -44.338181209752875 -2.7929981630841367 C-44.26659515010681 -3.160577449647602, -44.19500909046075 -3.5281567362110673, -44.12373846318191 -3.894116344235498 C-44.056187483654504 -4.151717505953213, -43.9886365041271 -4.409318667670929, -43.839187428141564 -4.979232766043059 C-43.75091867373432 -5.245084190601547, -43.66264991932708 -5.510935615160035, -43.48569738587081 -6.0438884523728715 C-43.33040108053194 -6.427473329009688, -43.17510477519307 -6.811058205646505, -43.06472090277672 -7.083708504641889 C-42.939614617619036 -7.343494382617502, -42.81450833246135 -7.603280260593115, -42.577987861527504 -8.094420079214611 C-42.442695987378215 -8.334644501554486, -42.30740411322893 -8.574868923894362, -42.027498352593554 -9.071869945434193 C-41.82759700764876 -9.378972092296559, -41.62769566270398 -9.686074239158925, -41.415514455446726 -10.012041552137969 C-41.16792384213279 -10.34379041800976, -40.92033322881884 -10.67553928388155, -40.744550943190525 -10.911071532527835 C-40.57193548422862 -11.11383547272235, -40.39932002526672 -11.316599412916865, -40.01736494881803 -11.765265579573038 C-39.77204567037286 -12.018577875655003, -39.5267263919277 -12.27189017173697, -39.236944635561024 -12.571113626710224 C-39.00278562093227 -12.783770648288034, -38.76862660630352 -12.996427669865842, -38.406496917886315 -13.32530427145984 C-38.12154344108431 -13.552547086278954, -37.83658996428232 -13.779789901098068, -37.52943428359629 -14.024738382689236 C-37.16785662600279 -14.27695930418194, -36.80627896840928 -14.529180225674642, -36.60936077118461 -14.666541835607205 C-36.36600871282113 -14.814063283482584, -36.122656654457636 -14.961584731357963, -35.65005716006891 -15.248077322159313 C-35.29755999521784 -15.43197486727691, -34.94506283036676 -15.615872412394507, -34.65546543455727 -15.766955188292332 C-34.29679732744658 -15.925726919798857, -33.9381292203359 -16.08449865130538, -33.62967258538906 -16.221043253555376 C-33.34883746222029 -16.324393174892904, -33.068002339051525 -16.427743096230433, -32.57689381541338 -16.608475572686697 C-32.23659074740292 -16.709475736984945, -31.89628767939247 -16.81047590128319, -31.501455218416396 -16.92766010318301 C-31.215202413359208 -16.992995437963188, -30.928949608302016 -17.058330772743368, -30.407776002274023 -17.17728524734364 C-30.169763284432374 -17.215765297748085, -29.931750566590726 -17.25424534815253, -29.300350329478867 -17.356325241906806 C-28.977877660149293 -17.387433792486902, -28.655404990819715 -17.418542343067003, -28.183728849662476 -17.464044373130886 C-27.83536260768397 -17.47521580045738, -27.486996365705465 -17.486387227783876, -27.062500000000007 -17.5 C-27.062500000000004 -17.5, -27.062500000000004 -17.5, -27.0625 -17.5" stroke="none" stroke-width="0" fill="#f4f6f9" style=""></path><path d="M-27.0625 -17.5 C-6.044376426372619 -17.5, 14.973747147254763 -17.5, 27.0625 -17.5 M-27.0625 -17.5 C-14.801314300175536 -17.5, -2.5401286003510712 -17.5, 27.0625 -17.5 M27.0625 -17.5 C27.0625 -17.5, 27.0625 -17.5, 27.0625 -17.5 M27.0625 -17.5 C27.0625 -17.5, 27.0625 -17.5, 27.0625 -17.5 M27.0625 -17.5 C27.46753157014145 -17.48701142589169, 27.8725631402829 -17.474022851783378, 28.183728849662476 -17.464044373130886 M27.0625 -17.5 C27.327766511202643 -17.491493419295672, 27.59303302240529 -17.482986838591344, 28.183728849662476 -17.464044373130886 M28.183728849662476 -17.464044373130886 C28.57317201467721 -17.426475259375845, 28.962615179691937 -17.38890614562081, 29.300350329478853 -17.35632524190681 M28.183728849662476 -17.464044373130886 C28.47848957592998 -17.4356091603695, 28.77325030219749 -17.40717394760811, 29.300350329478853 -17.35632524190681 M29.300350329478853 -17.35632524190681 C29.62046846706771 -17.304571023974678, 29.940586604656566 -17.252816806042542, 30.407776002274012 -17.177285247343644 M29.300350329478853 -17.35632524190681 C29.59264053203369 -17.309070028702116, 29.88493073458853 -17.261814815497424, 30.407776002274012 -17.177285247343644 M30.407776002274012 -17.177285247343644 C30.825748285431775 -17.081885801236933, 31.24372056858954 -16.98648635513022, 31.501455218416375 -16.927660103183015 M30.407776002274012 -17.177285247343644 C30.76396119220091 -17.095988302068413, 31.120146382127807 -17.014691356793183, 31.501455218416375 -16.927660103183015 M31.501455218416375 -16.927660103183015 C31.84310985413539 -16.82625880068339, 32.1847644898544 -16.724857498183766, 32.576893815413364 -16.6084755726867 M31.501455218416375 -16.927660103183015 C31.906737676451254 -16.807374397009298, 32.31202013448613 -16.68708869083558, 32.576893815413364 -16.6084755726867 M32.576893815413364 -16.6084755726867 C32.97132352984571 -16.463321791707283, 33.36575324427806 -16.318168010727867, 33.629672585389045 -16.22104325355538 M32.576893815413364 -16.6084755726867 C32.817755048439 -16.519836412436437, 33.05861628146463 -16.43119725218617, 33.629672585389045 -16.22104325355538 M33.629672585389045 -16.22104325355538 C33.83837302024988 -16.128657761920923, 34.04707345511073 -16.036272270286467, 34.655465434557264 -15.766955188292336 M33.629672585389045 -16.22104325355538 C33.92561535228009 -16.09003816948298, 34.221558119171135 -15.959033085410583, 34.655465434557264 -15.766955188292336 M34.655465434557264 -15.766955188292336 C35.048658674899066 -15.56182652665831, 35.44185191524087 -15.356697865024282, 35.65005716006891 -15.248077322159316 M34.655465434557264 -15.766955188292336 C34.888244702897545 -15.645514393101449, 35.12102397123783 -15.52407359791056, 35.65005716006891 -15.248077322159316 M35.65005716006891 -15.248077322159316 C35.8734196402914 -15.11267367402481, 36.09678212051389 -14.977270025890302, 36.6093607711846 -14.666541835607212 M35.65005716006891 -15.248077322159316 C35.95343499563811 -15.064167895391211, 36.25681283120731 -14.880258468623108, 36.6093607711846 -14.666541835607212 M36.6093607711846 -14.666541835607212 C36.89102040075192 -14.470068270869902, 37.172680030319235 -14.27359470613259, 37.52943428359628 -14.024738382689241 M36.6093607711846 -14.666541835607212 C36.859096593467434 -14.49233693687221, 37.10883241575028 -14.31813203813721, 37.52943428359628 -14.024738382689241 M37.52943428359628 -14.024738382689241 C37.711067870338766 -13.879890430734847, 37.89270145708125 -13.735042478780452, 38.406496917886294 -13.325304271459855 M37.52943428359628 -14.024738382689241 C37.81618026056614 -13.79606609668669, 38.102926237536 -13.567393810684141, 38.406496917886294 -13.325304271459855 M38.406496917886294 -13.325304271459855 C38.57809900229027 -13.169459798746512, 38.74970108669425 -13.01361532603317, 39.23694463556101 -12.571113626710233 M38.406496917886294 -13.325304271459855 C38.671528071575786 -13.08460999001912, 38.93655922526528 -12.843915708578383, 39.23694463556101 -12.571113626710233 M39.23694463556101 -12.571113626710233 C39.471088946310395 -12.32934040225607, 39.70523325705978 -12.08756717780191, 40.01736494881802 -11.765265579573047 M39.23694463556101 -12.571113626710233 C39.444074388153574 -12.357235151489457, 39.651204140746145 -12.143356676268683, 40.01736494881802 -11.765265579573047 M40.01736494881802 -11.765265579573047 C40.27100490689107 -11.467325652297966, 40.52464486496413 -11.169385725022885, 40.74455094319052 -10.911071532527838 M40.01736494881802 -11.765265579573047 C40.191079444280604 -11.561210648567886, 40.36479393974318 -11.357155717562726, 40.74455094319052 -10.911071532527838 M40.74455094319052 -10.911071532527838 C40.94137240859209 -10.647348699694106, 41.13819387399366 -10.383625866860374, 41.415514455446726 -10.012041552137973 M40.74455094319052 -10.911071532527838 C40.93555281260052 -10.655146428146708, 41.12655468201052 -10.399221323765575, 41.415514455446726 -10.012041552137973 M41.415514455446726 -10.012041552137973 C41.621536726257645 -9.695536019446498, 41.82755899706856 -9.379030486755024, 42.027498352593554 -9.071869945434191 M41.415514455446726 -10.012041552137973 C41.598271179552206 -9.731278146860092, 41.781027903657694 -9.45051474158221, 42.027498352593554 -9.071869945434191 M42.027498352593554 -9.071869945434191 C42.18183640875949 -8.797827098288703, 42.33617446492542 -8.523784251143216, 42.577987861527504 -8.094420079214617 M42.027498352593554 -9.071869945434191 C42.21644605409302 -8.736374168392398, 42.405393755592485 -8.400878391350608, 42.577987861527504 -8.094420079214617 M42.577987861527504 -8.094420079214617 C42.754375054563354 -7.728148298794329, 42.93076224759921 -7.361876518374041, 43.06472090277671 -7.083708504641896 M42.577987861527504 -8.094420079214617 C42.72047469039771 -7.7985431303358945, 42.86296151926791 -7.502666181457173, 43.06472090277671 -7.083708504641896 M43.06472090277671 -7.083708504641896 C43.22548570003333 -6.686616347242146, 43.38625049728995 -6.289524189842397, 43.48569738587081 -6.043888452372892 M43.06472090277671 -7.083708504641896 C43.18732124992299 -6.780883276874149, 43.309921597069255 -6.478058049106401, 43.48569738587081 -6.043888452372892 M43.48569738587081 -6.043888452372892 C43.57692371811021 -5.769129274609966, 43.66815005034961 -5.49437009684704, 43.83918742814156 -4.979232766043073 M43.48569738587081 -6.043888452372892 C43.575895396886324 -5.77222641429557, 43.66609340790184 -5.500564376218248, 43.83918742814156 -4.979232766043073 M43.83918742814156 -4.979232766043073 C43.92170234011595 -4.664567644495644, 44.00421725209034 -4.349902522948216, 44.12373846318191 -3.894116344235504 M43.83918742814156 -4.979232766043073 C43.92644054452244 -4.6464988175429065, 44.01369366090333 -4.31376486904274, 44.12373846318191 -3.894116344235504 M44.12373846318191 -3.894116344235504 C44.17431848557228 -3.634398619352489, 44.22489850796264 -3.3746808944694737, 44.338181209752875 -2.792998163084143 M44.12373846318191 -3.894116344235504 C44.19777555600938 -3.513951520311524, 44.271812648836864 -3.1337866963875447, 44.338181209752875 -2.792998163084143 M44.338181209752875 -2.792998163084143 C44.385965511199295 -2.4223925571433256, 44.433749812645715 -2.0517869512025078, 44.48163447661097 -1.680402953384434 M44.338181209752875 -2.792998163084143 C44.387462590182245 -2.410781508183242, 44.436743970611616 -2.028564853282341, 44.48163447661097 -1.680402953384434 M44.48163447661097 -1.680402953384434 C44.50796365522056 -1.2703047440097006, 44.534292833830136 -0.8602065346349672, 44.55350878351204 -0.5609026075039654 M44.48163447661097 -1.680402953384434 C44.503534471091285 -1.3392928619961537, 44.5254344655716 -0.9981827706078733, 44.55350878351204 -0.5609026075039654 M44.55350878351204 -0.5609026075039654 C44.55350878351204 -0.2437826525871088, 44.55350878351204 0.07333730232974778, 44.55350878351204 0.5609026075039611 M44.55350878351204 -0.5609026075039654 C44.55350878351204 -0.2471151761480032, 44.55350878351204 0.06667225520795894, 44.55350878351204 0.5609026075039611 M44.55350878351204 0.5609026075039611 C44.536763688199194 0.8217209833991654, 44.52001859288635 1.0825393592943697, 44.48163447661097 1.680402953384422 M44.55350878351204 0.5609026075039611 C44.524907948126106 1.0063837048186657, 44.496307112740176 1.4518648021333704, 44.48163447661097 1.680402953384422 M44.48163447661097 1.680402953384422 C44.42651043954158 2.107934099422233, 44.3713864024722 2.5354652454600437, 44.338181209752875 2.792998163084131 M44.48163447661097 1.680402953384422 C44.43161069129391 2.068377553989815, 44.381586905976846 2.4563521545952076, 44.338181209752875 2.792998163084131 M44.338181209752875 2.792998163084131 C44.29224667620473 3.0288622845867472, 44.246312142656585 3.264726406089363, 44.12373846318191 3.8941163442355 M44.338181209752875 2.792998163084131 C44.270788323400325 3.139046391012894, 44.203395437047774 3.4850946189416567, 44.12373846318191 3.8941163442355 M44.12373846318191 3.8941163442355 C44.01817358815147 4.2966809648328175, 43.91260871312103 4.699245585430134, 43.83918742814156 4.979232766043061 M44.12373846318191 3.8941163442355 C44.04796209883575 4.183084463171463, 43.972185734489585 4.472052582107426, 43.83918742814156 4.979232766043061 M43.83918742814156 4.979232766043061 C43.707724778845595 5.375177319993822, 43.57626212954963 5.771121873944583, 43.48569738587081 6.04388845237288 M43.83918742814156 4.979232766043061 C43.69823652282737 5.403754435372406, 43.557285617513195 5.828276104701751, 43.48569738587081 6.04388845237288 M43.48569738587081 6.04388845237288 C43.33475395653348 6.416721641128751, 43.18381052719616 6.7895548298846204, 43.06472090277672 7.0837085046418915 M43.48569738587081 6.04388845237288 C43.34870882498962 6.382252846243062, 43.211720264108436 6.720617240113243, 43.06472090277672 7.0837085046418915 M43.06472090277672 7.0837085046418915 C42.91371200270393 7.397281716715895, 42.762703102631136 7.710854928789898, 42.577987861527504 8.094420079214613 M43.06472090277672 7.0837085046418915 C42.90068761834374 7.4243271295170175, 42.73665433391076 7.7649457543921425, 42.577987861527504 8.094420079214613 M42.577987861527504 8.094420079214613 C42.41890260011133 8.376892069988557, 42.259817338695164 8.6593640607625, 42.02749835259356 9.071869945434186 M42.577987861527504 8.094420079214613 C42.411619440550005 8.389824057289568, 42.245251019572514 8.685228035364522, 42.02749835259356 9.071869945434186 M42.02749835259356 9.071869945434186 C41.813010785378836 9.40138044665228, 41.59852321816411 9.730890947870373, 41.41551445544673 10.012041552137964 M42.02749835259356 9.071869945434186 C41.823662196239425 9.385017019266117, 41.61982603988529 9.698164093098049, 41.41551445544673 10.012041552137964 M41.41551445544673 10.012041552137964 C41.17053996167264 10.34028505615975, 40.925565467898544 10.668528560181539, 40.744550943190525 10.911071532527835 M41.41551445544673 10.012041552137964 C41.28077686883575 10.192577643350022, 41.14603928222477 10.37311373456208, 40.744550943190525 10.911071532527835 M40.744550943190525 10.911071532527835 C40.49663895003403 11.202283066281483, 40.24872695687754 11.493494600035133, 40.01736494881803 11.765265579573038 M40.744550943190525 10.911071532527835 C40.500475018460044 11.197777002029817, 40.256399093729556 11.484482471531798, 40.01736494881803 11.765265579573038 M40.01736494881803 11.765265579573038 C39.782980214832385 12.007287060757749, 39.54859548084675 12.24930854194246, 39.23694463556102 12.571113626710229 M40.01736494881803 11.765265579573038 C39.73721465795641 12.054543755654294, 39.457064367094794 12.34382193173555, 39.23694463556102 12.571113626710229 M39.23694463556102 12.571113626710229 C38.94256052551778 12.838465486474767, 38.648176415474545 13.105817346239306, 38.40649691788631 13.325304271459842 M39.23694463556102 12.571113626710229 C39.03899894404806 12.750882666386293, 38.84105325253511 12.930651706062358, 38.40649691788631 13.325304271459842 M38.40649691788631 13.325304271459842 C38.18535414777005 13.501659745771299, 37.96421137765379 13.678015220082756, 37.52943428359629 14.02473838268924 M38.40649691788631 13.325304271459842 C38.065940150456655 13.59688923088881, 37.725383383026994 13.868474190317778, 37.52943428359629 14.02473838268924 M37.52943428359629 14.02473838268924 C37.25872679394866 14.213572208729067, 36.98801930430104 14.402406034768896, 36.60936077118461 14.666541835607207 M37.52943428359629 14.02473838268924 C37.28736459670594 14.193595717236091, 37.045294909815595 14.362453051782945, 36.60936077118461 14.666541835607207 M36.60936077118461 14.666541835607207 C36.37468841599158 14.808801596413062, 36.14001606079854 14.951061357218915, 35.65005716006891 15.248077322159315 M36.60936077118461 14.666541835607207 C36.28809882617339 14.861292714617756, 35.96683688116217 15.056043593628306, 35.65005716006891 15.248077322159315 M35.65005716006891 15.248077322159315 C35.44114006972582 15.357069234373522, 35.23222297938273 15.466061146587728, 34.65546543455727 15.766955188292332 M35.65005716006891 15.248077322159315 C35.34180165192778 15.408894023309466, 35.03354614378665 15.569710724459616, 34.65546543455727 15.766955188292332 M34.65546543455727 15.766955188292332 C34.35859136883589 15.898372530730922, 34.061717303114506 16.029789873169513, 33.62967258538905 16.22104325355538 M34.65546543455727 15.766955188292332 C34.3630149162197 15.896414357523982, 34.07056439788212 16.025873526755632, 33.62967258538905 16.22104325355538 M33.62967258538905 16.22104325355538 C33.24011750978165 16.36440312238655, 32.85056243417425 16.507762991217714, 32.57689381541337 16.608475572686697 M33.62967258538905 16.22104325355538 C33.30111356736905 16.34195600935301, 32.97255454934904 16.46286876515064, 32.57689381541337 16.608475572686697 M32.57689381541337 16.608475572686697 C32.1731527795397 16.72830379285406, 31.769411743666033 16.84813201302142, 31.501455218416396 16.927660103183012 M32.57689381541337 16.608475572686697 C32.296866725128915 16.691586143190932, 32.01683963484445 16.77469671369517, 31.501455218416396 16.927660103183012 M31.501455218416396 16.927660103183012 C31.240228641630452 16.987283364671683, 30.979002064844508 17.04690662616035, 30.40777600227402 17.177285247343644 M31.501455218416396 16.927660103183012 C31.2165047733194 16.992698182800968, 30.931554328222404 17.057736262418928, 30.40777600227402 17.177285247343644 M30.40777600227402 17.177285247343644 C30.000501646399 17.243130206741714, 29.59322729052398 17.308975166139785, 29.300350329478864 17.356325241906806 M30.40777600227402 17.177285247343644 C30.07307589228136 17.23139696548914, 29.7383757822887 17.28550868363463, 29.300350329478864 17.356325241906806 M29.300350329478864 17.356325241906806 C28.923164732918394 17.392711882774947, 28.54597913635793 17.429098523643084, 28.183728849662476 17.464044373130886 M29.300350329478864 17.356325241906806 C28.925943926865184 17.392443777277368, 28.551537524251508 17.42856231264793, 28.183728849662476 17.464044373130886 M28.183728849662476 17.464044373130886 C27.834041968702888 17.475258150779037, 27.4843550877433 17.48647192842719, 27.062500000000004 17.5 M28.183728849662476 17.464044373130886 C27.900325551554868 17.47313256529014, 27.616922253447257 17.482220757449397, 27.062500000000004 17.5 M27.062500000000004 17.5 C27.062500000000004 17.5, 27.0625 17.5, 27.0625 17.5 M27.062500000000004 17.5 C27.062500000000004 17.5, 27.0625 17.5, 27.0625 17.5 M27.0625 17.5 C8.710611302064596 17.5, -9.641277395870809 17.5, -27.062499999999996 17.5 M27.0625 17.5 C12.445666936356861 17.5, -2.171166127286277 17.5, -27.062499999999996 17.5 M-27.062499999999996 17.5 C-27.37247145861274 17.490059818645133, -27.68244291722548 17.480119637290265, -28.18372884966247 17.464044373130886 M-27.062499999999996 17.5 C-27.47563549972396 17.48675154864332, -27.888770999447924 17.47350309728664, -28.18372884966247 17.464044373130886 M-28.18372884966247 17.464044373130886 C-28.5288728274559 17.430748748689517, -28.87401680524933 17.39745312424815, -29.30035032947886 17.356325241906806 M-28.18372884966247 17.464044373130886 C-28.41745494747684 17.441497097571492, -28.65118104529121 17.4189498220121, -29.30035032947886 17.356325241906806 M-29.30035032947886 17.356325241906806 C-29.599270848842853 17.307998090499286, -29.89819136820684 17.259670939091766, -30.407776002274012 17.177285247343644 M-29.30035032947886 17.356325241906806 C-29.60164425983182 17.307614375816666, -29.90293819018478 17.258903509726526, -30.407776002274012 17.177285247343644 M-30.407776002274012 17.177285247343644 C-30.651187936504936 17.121728061766753, -30.89459987073586 17.066170876189858, -31.501455218416375 16.927660103183015 M-30.407776002274012 17.177285247343644 C-30.7953226423717 17.088830255719518, -31.18286928246939 17.000375264095393, -31.501455218416375 16.927660103183015 M-31.501455218416375 16.927660103183015 C-31.817234060853632 16.833938600304606, -32.13301290329089 16.740217097426196, -32.57689381541336 16.608475572686704 M-31.501455218416375 16.927660103183015 C-31.78392954947792 16.84382320446197, -32.06640388053947 16.759986305740924, -32.57689381541336 16.608475572686704 M-32.57689381541336 16.608475572686704 C-32.84213987722315 16.510862570032984, -33.107385939032945 16.41324956737926, -33.629672585389045 16.22104325355538 M-32.57689381541336 16.608475572686704 C-32.85488572294452 16.50617198098621, -33.13287763047569 16.403868389285716, -33.629672585389045 16.22104325355538 M-33.629672585389045 16.22104325355538 C-33.92682234901846 16.08950386783119, -34.22397211264788 15.957964482107005, -34.655465434557264 15.766955188292338 M-33.629672585389045 16.22104325355538 C-34.01810363466587 16.049096350438216, -34.40653468394269 15.877149447321054, -34.655465434557264 15.766955188292338 M-34.655465434557264 15.766955188292338 C-35.02743682899871 15.572897950071283, -35.39940822344016 15.378840711850229, -35.650057160068904 15.248077322159318 M-34.655465434557264 15.766955188292338 C-34.923105114135716 15.627327738887654, -35.19074479371417 15.487700289482971, -35.650057160068904 15.248077322159318 M-35.650057160068904 15.248077322159318 C-35.96415900301624 15.057666939097325, -36.27826084596358 14.867256556035333, -36.60936077118459 14.666541835607218 M-35.650057160068904 15.248077322159318 C-35.95566872967741 15.06281379268971, -36.261280299285914 14.8775502632201, -36.60936077118459 14.666541835607218 M-36.60936077118459 14.666541835607218 C-36.84764433972658 14.500325533321758, -37.085927908268566 14.3341092310363, -37.529434283596274 14.024738382689243 M-36.60936077118459 14.666541835607218 C-36.87515089881728 14.481138148439836, -37.14094102644997 14.295734461272456, -37.529434283596274 14.024738382689243 M-37.529434283596274 14.024738382689243 C-37.754408450136985 13.84532747168703, -37.9793826166777 13.665916560684817, -38.406496917886294 13.325304271459856 M-37.529434283596274 14.024738382689243 C-37.84285045423315 13.774797326960906, -38.156266624870035 13.524856271232569, -38.406496917886294 13.325304271459856 M-38.406496917886294 13.325304271459856 C-38.65204372888579 13.102305154522718, -38.897590539885286 12.879306037585579, -39.236944635561 12.571113626710241 M-38.406496917886294 13.325304271459856 C-38.68014954576082 13.076780195275981, -38.953802173635346 12.828256119092107, -39.236944635561 12.571113626710241 M-39.236944635561 12.571113626710241 C-39.3972619377353 12.405572849919986, -39.5575792399096 12.240032073129731, -40.01736494881803 11.765265579573043 M-39.236944635561 12.571113626710241 C-39.46230432374447 12.338411246286318, -39.68766401192793 12.105708865862397, -40.01736494881803 11.765265579573043 M-40.01736494881803 11.765265579573043 C-40.2696052679033 11.468969747894723, -40.521845586988576 11.172673916216404, -40.74455094319052 10.91107153252784 M-40.01736494881803 11.765265579573043 C-40.18525106795574 11.568056991043084, -40.353137187093445 11.370848402513126, -40.74455094319052 10.91107153252784 M-40.74455094319052 10.91107153252784 C-40.90731624777925 10.692980852603236, -41.070081552367974 10.474890172678634, -41.415514455446726 10.012041552137974 M-40.74455094319052 10.91107153252784 C-41.00888867894318 10.556883048282412, -41.273226414695834 10.202694564036985, -41.415514455446726 10.012041552137974 M-41.415514455446726 10.012041552137974 C-41.63448054186351 9.675650842774724, -41.853446628280295 9.339260133411473, -42.027498352593554 9.071869945434198 M-41.415514455446726 10.012041552137974 C-41.607824187065674 9.716602161977718, -41.800133918684615 9.421162771817464, -42.027498352593554 9.071869945434198 M-42.027498352593554 9.071869945434198 C-42.19896253180288 8.767417932617157, -42.37042671101221 8.462965919800116, -42.577987861527504 8.094420079214618 M-42.027498352593554 9.071869945434198 C-42.229099582595076 8.713906547228307, -42.4307008125966 8.355943149022417, -42.577987861527504 8.094420079214618 M-42.577987861527504 8.094420079214618 C-42.67578955835366 7.891332763134025, -42.77359125517982 7.688245447053431, -43.06472090277671 7.083708504641898 M-42.577987861527504 8.094420079214618 C-42.68806616010693 7.865840136916169, -42.798144458686345 7.637260194617719, -43.06472090277671 7.083708504641898 M-43.06472090277671 7.083708504641898 C-43.15335042290181 6.864791876397717, -43.241979943026905 6.645875248153537, -43.48569738587081 6.043888452372894 M-43.06472090277671 7.083708504641898 C-43.20589927304966 6.734995200569617, -43.347077643322606 6.386281896497338, -43.48569738587081 6.043888452372894 M-43.48569738587081 6.043888452372894 C-43.61590965887638 5.651709832588363, -43.74612193188196 5.259531212803832, -43.83918742814156 4.979232766043068 M-43.48569738587081 6.043888452372894 C-43.62092767992101 5.6365963527150145, -43.75615797397122 5.229304253057135, -43.83918742814156 4.979232766043068 M-43.83918742814156 4.979232766043068 C-43.89892865711663 4.751413567948688, -43.958669886091705 4.523594369854308, -44.12373846318191 3.8941163442355062 M-43.83918742814156 4.979232766043068 C-43.91297397341826 4.697852689611981, -43.986760518694965 4.416472613180893, -44.12373846318191 3.8941163442355062 M-44.12373846318191 3.8941163442355062 C-44.20659003668512 3.468691024982766, -44.28944161018834 3.043265705730025, -44.338181209752875 2.7929981630841447 M-44.12373846318191 3.8941163442355062 C-44.19682200007101 3.5188478285209843, -44.2699055369601 3.143579312806462, -44.338181209752875 2.7929981630841447 M-44.338181209752875 2.7929981630841447 C-44.394930780099884 2.3528597019429345, -44.45168035044689 1.9127212408017245, -44.481634476610964 1.680402953384444 M-44.338181209752875 2.7929981630841447 C-44.38171337233879 2.455371306465614, -44.4252455349247 2.1177444498470837, -44.481634476610964 1.680402953384444 M-44.481634476610964 1.680402953384444 C-44.5000456388526 1.3936342402483144, -44.51845680109423 1.106865527112185, -44.55350878351204 0.5609026075039676 M-44.481634476610964 1.680402953384444 C-44.50498754565481 1.3166600527685373, -44.52834061469865 0.9529171521526304, -44.55350878351204 0.5609026075039676 M-44.55350878351204 0.5609026075039676 C-44.55350878351204 0.2818607667395295, -44.55350878351204 0.0028189259750913687, -44.55350878351204 -0.560902607503959 M-44.55350878351204 0.5609026075039676 C-44.55350878351204 0.2972907422661149, -44.55350878351204 0.03367887702826222, -44.55350878351204 -0.560902607503959 M-44.55350878351204 -0.560902607503959 C-44.537427212103495 -0.8113860630027678, -44.52134564069496 -1.0618695185015765, -44.48163447661097 -1.6804029533844198 M-44.55350878351204 -0.560902607503959 C-44.53391885281309 -0.8660315908474991, -44.514328922114146 -1.1711605741910394, -44.48163447661097 -1.6804029533844198 M-44.48163447661097 -1.6804029533844198 C-44.44958110327352 -1.9290025873351637, -44.417527729936076 -2.1776022212859076, -44.338181209752875 -2.7929981630841367 M-44.48163447661097 -1.6804029533844198 C-44.42517682375189 -2.1182773601348526, -44.36871917089282 -2.556151766885286, -44.338181209752875 -2.7929981630841367 M-44.338181209752875 -2.7929981630841367 C-44.264361926756195 -3.1720445795611045, -44.190542643759514 -3.551090996038072, -44.12373846318191 -3.894116344235498 M-44.338181209752875 -2.7929981630841367 C-44.2686800511378 -3.149871923497452, -44.19917889252273 -3.506745683910767, -44.12373846318191 -3.894116344235498 M-44.12373846318191 -3.894116344235498 C-44.05686514714599 -4.1491332813589565, -43.989991831110075 -4.404150218482415, -43.839187428141564 -4.979232766043059 M-44.12373846318191 -3.894116344235498 C-44.049599610549265 -4.176839921305747, -43.97546075791663 -4.4595634983759975, -43.839187428141564 -4.979232766043059 M-43.839187428141564 -4.979232766043059 C-43.73866998874971 -5.281975278212267, -43.63815254935786 -5.5847177903814735, -43.48569738587081 -6.0438884523728715 M-43.839187428141564 -4.979232766043059 C-43.70757411695469 -5.375631089604525, -43.57596080576782 -5.77202941316599, -43.48569738587081 -6.0438884523728715 M-43.48569738587081 -6.0438884523728715 C-43.34011273834657 -6.403485346445426, -43.19452809082233 -6.7630822405179805, -43.06472090277672 -7.083708504641889 M-43.48569738587081 -6.0438884523728715 C-43.38745904152405 -6.28653906221854, -43.2892206971773 -6.529189672064209, -43.06472090277672 -7.083708504641889 M-43.06472090277672 -7.083708504641889 C-42.883411409764754 -7.460201546282921, -42.70210191675279 -7.836694587923953, -42.577987861527504 -8.094420079214611 M-43.06472090277672 -7.083708504641889 C-42.9182910549176 -7.38777321681818, -42.771861207058485 -7.691837928994473, -42.577987861527504 -8.094420079214611 M-42.577987861527504 -8.094420079214611 C-42.465272039207605 -8.294558435458264, -42.352556216887706 -8.494696791701916, -42.027498352593554 -9.071869945434193 M-42.577987861527504 -8.094420079214611 C-42.39640244335909 -8.416843376690103, -42.21481702519066 -8.739266674165595, -42.027498352593554 -9.071869945434193 M-42.027498352593554 -9.071869945434193 C-41.89858036747588 -9.269922589901109, -41.7696623823582 -9.467975234368026, -41.415514455446726 -10.012041552137969 M-42.027498352593554 -9.071869945434193 C-41.89410715553811 -9.276794644663116, -41.76071595848266 -9.481719343892038, -41.415514455446726 -10.012041552137969 M-41.415514455446726 -10.012041552137969 C-41.24746871115211 -10.23720754021051, -41.07942296685749 -10.462373528283052, -40.744550943190525 -10.911071532527835 M-41.415514455446726 -10.012041552137969 C-41.23253310071155 -10.257219897538752, -41.04955174597638 -10.502398242939536, -40.744550943190525 -10.911071532527835 M-40.744550943190525 -10.911071532527835 C-40.595990299180315 -11.085579318322342, -40.447429655170104 -11.26008710411685, -40.01736494881803 -11.765265579573038 M-40.744550943190525 -10.911071532527835 C-40.56334486041077 -11.123926508279139, -40.38213877763102 -11.336781484030443, -40.01736494881803 -11.765265579573038 M-40.01736494881803 -11.765265579573038 C-39.77940232242872 -12.010981528414959, -39.541439696039426 -12.25669747725688, -39.236944635561024 -12.571113626710224 M-40.01736494881803 -11.765265579573038 C-39.74061881562118 -12.051028683378874, -39.46387268242434 -12.336791787184712, -39.236944635561024 -12.571113626710224 M-39.236944635561024 -12.571113626710224 C-39.01979141484528 -12.768326436204893, -38.80263819412953 -12.965539245699562, -38.406496917886315 -13.32530427145984 M-39.236944635561024 -12.571113626710224 C-39.057963060117146 -12.733659957935371, -38.87898148467327 -12.896206289160519, -38.406496917886315 -13.32530427145984 M-38.406496917886315 -13.32530427145984 C-38.09172649710632 -13.5763253056392, -37.77695607632633 -13.827346339818561, -37.52943428359629 -14.024738382689236 M-38.406496917886315 -13.32530427145984 C-38.114606951818274 -13.558078751880892, -37.82271698575023 -13.790853232301943, -37.52943428359629 -14.024738382689236 M-37.52943428359629 -14.024738382689236 C-37.29476263954167 -14.188435162809997, -37.06009099548705 -14.352131942930757, -36.60936077118461 -14.666541835607205 M-37.52943428359629 -14.024738382689236 C-37.28920781758565 -14.192309966142151, -37.04898135157501 -14.359881549595068, -36.60936077118461 -14.666541835607205 M-36.60936077118461 -14.666541835607205 C-36.25472309944315 -14.881525276299172, -35.900085427701676 -15.096508716991137, -35.65005716006891 -15.248077322159313 M-36.60936077118461 -14.666541835607205 C-36.407475790347355 -14.788925697398584, -36.205590809510106 -14.911309559189965, -35.65005716006891 -15.248077322159313 M-35.65005716006891 -15.248077322159313 C-35.40111691996992 -15.377949285965123, -35.15217667987093 -15.507821249770933, -34.65546543455727 -15.766955188292332 M-35.65005716006891 -15.248077322159313 C-35.29728698713521 -15.432117295418747, -34.9445168142015 -15.616157268678183, -34.65546543455727 -15.766955188292332 M-34.65546543455727 -15.766955188292332 C-34.42556915664828 -15.868723450891862, -34.19567287873929 -15.970491713491391, -33.62967258538906 -16.221043253555376 M-34.65546543455727 -15.766955188292332 C-34.304957567279786 -15.922114623689614, -33.9544497000023 -16.077274059086896, -33.62967258538906 -16.221043253555376 M-33.62967258538906 -16.221043253555376 C-33.3872886675951 -16.310242775875928, -33.144904749801135 -16.39944229819648, -32.57689381541338 -16.608475572686697 M-33.62967258538906 -16.221043253555376 C-33.36037317231043 -16.320147926944795, -33.091073759231804 -16.419252600334218, -32.57689381541338 -16.608475572686697 M-32.57689381541338 -16.608475572686697 C-32.281844216874454 -16.696044744786104, -31.986794618335527 -16.783613916885507, -31.501455218416396 -16.92766010318301 M-32.57689381541338 -16.608475572686697 C-32.30755597232857 -16.688413630731077, -32.038218129243766 -16.76835168877546, -31.501455218416396 -16.92766010318301 M-31.501455218416396 -16.92766010318301 C-31.237037782833134 -16.988011657369867, -30.972620347249872 -17.048363211556723, -30.407776002274023 -17.17728524734364 M-31.501455218416396 -16.92766010318301 C-31.28199353941741 -16.977750799293233, -31.062531860418424 -17.027841495403457, -30.407776002274023 -17.17728524734364 M-30.407776002274023 -17.17728524734364 C-30.07293972650914 -17.231418979715208, -29.73810345074426 -17.285552712086773, -29.300350329478867 -17.356325241906806 M-30.407776002274023 -17.17728524734364 C-30.01915945871142 -17.240113756340538, -29.63054291514882 -17.302942265337432, -29.300350329478867 -17.356325241906806 M-29.300350329478867 -17.356325241906806 C-28.891762976690842 -17.395741172432082, -28.48317562390282 -17.435157102957355, -28.183728849662476 -17.464044373130886 M-29.300350329478867 -17.356325241906806 C-28.889989656988714 -17.395912242451015, -28.479628984498557 -17.435499242995228, -28.183728849662476 -17.464044373130886 M-28.183728849662476 -17.464044373130886 C-27.84631907396686 -17.47486444790916, -27.50890929827124 -17.48568452268743, -27.062500000000007 -17.5 M-28.183728849662476 -17.464044373130886 C-27.78285187054593 -17.47689971759145, -27.381974891429387 -17.489755062052012, -27.062500000000007 -17.5 M-27.062500000000007 -17.5 C-27.062500000000004 -17.5, -27.062500000000004 -17.5, -27.0625 -17.5 M-27.062500000000007 -17.5 C-27.062500000000004 -17.5, -27.062500000000004 -17.5, -27.0625 -17.5" stroke="#868a93" stroke-width="1.3" fill="none" stroke-dasharray="0 0" style=""></path></g><g class="label" style="" transform="translate(0, -10)"><rect></rect><g><rect class="background" style="stroke: none"></rect><text y="-10.1" style=""><tspan class="text-outer-tspan row" x="0" y="-0.1em" dy="1.1em"><tspan font-style="normal" class="text-inner-tspan" font-weight="normal">Browser</tspan></tspan></text></g></g></g><g class="node default" id="d-architecture-light-flowchart-N-7" data-look="classic" transform="translate(1165.4790878295898, 86.69999694824219)"><path d="M0,12.120870629145468 a58.8203125,12.120870629145468 0,0,0 117.640625,0 a58.8203125,12.120870629145468 0,0,0 -117.640625,0 l0,65.82087139208492 a58.8203125,12.120870629145468 0,0,0 117.640625,0 l0,-65.82087139208492" class="basic label-container outer-path" style="" transform="translate(-58.8203125, -45.03130632518793)"></path><g class="label" style="" transform="translate(0, -10.350000381469727)"><rect></rect><g><rect class="background" style="stroke: none"></rect><text y="-10.1" style=""><tspan class="text-outer-tspan row" x="0" y="-0.1em" dy="1.1em"><tspan font-style="normal" class="text-inner-tspan" font-weight="normal">nftables</tspan></tspan><tspan class="text-outer-tspan row" x="0" y="1em" dy="1.1em"><tspan font-style="normal" class="text-inner-tspan" font-weight="normal">inet</tspan><tspan font-style="normal" class="text-inner-tspan" font-weight="normal"> easywall</tspan></tspan></text></g></g></g></g></g></g><defs><filter id="d-architecture-light-drop-shadow" height="130%" width="130%"><feDropShadow dx="4" dy="4" stdDeviation="0" flood-opacity="0.06" flood-color="#000000"></feDropShadow></filter></defs><defs><filter id="d-architecture-light-drop-shadow-small" height="150%" width="150%"><feDropShadow dx="2" dy="2" stdDeviation="0" flood-opacity="0.06" flood-color="#000000"></feDropShadow></filter></defs><linearGradient id="d-architecture-light-gradient" gradientUnits="objectBoundingBox" x1="0%" y1="0%" x2="100%" y2="0%"><stop offset="0%" stop-color="#868a93" stop-opacity="1"></stop><stop offset="100%" stop-color="hsl(0, 0%, 90%)" stop-opacity="1"></stop></linearGradient></svg>