<svg data-source-digest="04028df074e090b6" id="d-architecture-dark" xmlns="http://www.w3.org/2000/svg" class="flowchart" viewBox="0 0 1232.2994384765625 173.39999389648438" role="graphics-document document" aria-roledescription="flowchart-v2" width="1233" height="174"><style>#d-architecture-dark{font-family:Inter,system-ui,sans-serif;font-size:17px;fill:#f1f3f6;}@keyframes edge-animation-frame{from{stroke-dashoffset:0;}}@keyframes dash{to{stroke-dashoffset:0;}}#d-architecture-dark .edge-animation-slow{stroke-dasharray:9,5!important;stroke-dashoffset:900;animation:dash 50s linear infinite;stroke-linecap:round;}#d-architecture-dark .edge-animation-fast{stroke-dasharray:9,5!important;stroke-dashoffset:900;animation:dash 20s linear infinite;stroke-linecap:round;}#d-architecture-dark .error-icon{fill:#0a0b0f;}#d-architecture-dark .error-text{fill:#f5f4f0;stroke:#f5f4f0;}#d-architecture-dark .edge-thickness-normal{stroke-width:1px;}#d-architecture-dark .edge-thickness-thick{stroke-width:3.5px;}#d-architecture-dark .edge-pattern-solid{stroke-dasharray:0;}#d-architecture-dark .edge-thickness-invisible{stroke-width:0;fill:none;}#d-architecture-dark .edge-pattern-dashed{stroke-dasharray:3;}#d-architecture-dark .edge-pattern-dotted{stroke-dasharray:2;}#d-architecture-dark .marker{fill:#7d8593;stroke:#7d8593;}#d-architecture-dark .marker.cross{stroke:#7d8593;}#d-architecture-dark svg{font-family:Inter,system-ui,sans-serif;font-size:17px;}#d-architecture-dark p{margin:0;}#d-architecture-dark .label{font-family:Inter,system-ui,sans-serif;color:#f1f3f6;}#d-architecture-dark .cluster-label text{fill:#f5f4f0;}#d-architecture-dark .cluster-label span{color:#f5f4f0;}#d-architecture-dark .cluster-label span p{background-color:transparent;}#d-architecture-dark .label text,#d-architecture-dark span{fill:#f1f3f6;color:#f1f3f6;}#d-architecture-dark .node rect,#d-architecture-dark .node circle,#d-architecture-dark .node ellipse,#d-architecture-dark .node polygon,#d-architecture-dark .node path{fill:#181b22;stroke:#5e636e;stroke-width:1px;}#d-architecture-dark .rough-node .label text,#d-architecture-dark .node .label text,#d-architecture-dark .image-shape .label,#d-architecture-dark .icon-shape .label{text-anchor:middle;}#d-architecture-dark .node .katex path{fill:#000;stroke:#000;stroke-width:1px;}#d-architecture-dark .rough-node .label,#d-architecture-dark .node .label,#d-architecture-dark .image-shape .label,#d-architecture-dark .icon-shape .label{text-align:center;}#d-architecture-dark .node.clickable{cursor:pointer;}#d-architecture-dark .root .anchor path{fill:#7d8593!important;stroke-width:0;stroke:#7d8593;}#d-architecture-dark .arrowheadPath{fill:rgba(255, 255, 255, 0);}#d-architecture-dark .edgePath .path{stroke:#7d8593;stroke-width:1px;}#d-architecture-dark .flowchart-link{stroke:#7d8593;fill:none;}#d-architecture-dark .edgeLabel{background-color:#111318;text-align:center;}#d-architecture-dark .edgeLabel p{background-color:#111318;}#d-architecture-dark .edgeLabel rect{opacity:0.5;background-color:#111318;fill:#111318;}#d-architecture-dark .labelBkg{background-color:rgba(17, 19, 24, 0.5);}#d-architecture-dark .cluster rect{fill:#0a0b0f;stroke:hsl(228, 0%, 0%);stroke-width:1px;}#d-architecture-dark .cluster text{fill:#f5f4f0;}#d-architecture-dark .cluster span{color:#f5f4f0;}#d-architecture-dark .node .collapsed-indicator{fill:hsl(228, 0%, 0%);stroke:none;opacity:0.6;}#d-architecture-dark .node .collapsed-separator{stroke:hsl(228, 0%, 0%);stroke-width:0.75px;}#d-architecture-dark div.mermaidTooltip{position:absolute;text-align:center;max-width:200px;padding:2px;font-family:Inter,system-ui,sans-serif;font-size:12px;background:#0a0b0f;border:1px solid hsl(228, 0%, 0%);border-radius:2px;pointer-events:none;z-index:100;}#d-architecture-dark .flowchartTitleText{text-anchor:middle;font-size:18px;fill:#f1f3f6;}#d-architecture-dark rect.text{fill:none;stroke-width:0;}#d-architecture-dark .icon-shape,#d-architecture-dark .image-shape{background-color:#111318;text-align:center;}#d-architecture-dark .icon-shape p,#d-architecture-dark .image-shape p{background-color:#111318;padding:2px;}#d-architecture-dark .icon-shape .label rect,#d-architecture-dark .image-shape .label rect{opacity:0.5;background-color:#111318;fill:#111318;}#d-architecture-dark .label-icon{display:inline-block;height:1em;overflow:visible;vertical-align:-0.125em;}#d-architecture-dark .node .label-icon path{fill:currentColor;stroke:revert;stroke-width:revert;}#d-architecture-dark .node .neo-node{stroke:#5e636e;}#d-architecture-dark [data-look="neo"].node rect,#d-architecture-dark [data-look="neo"].cluster rect,#d-architecture-dark [data-look="neo"].node polygon{stroke:url(#d-architecture-dark-gradient);filter:drop-shadow( 1px 2px 2px rgba(185,185,185,1));}#d-architecture-dark [data-look="neo"].swimlane.cluster rect{filter:none;}#d-architecture-dark [data-look="neo"].node path{stroke:url(#d-architecture-dark-gradient);stroke-width:1px;}#d-architecture-dark [data-look="neo"].node .outer-path{filter:drop-shadow( 1px 2px 2px rgba(185,185,185,1));}#d-architecture-dark [data-look="neo"].node .neo-line path{stroke:#5e636e;filter:none;}#d-architecture-dark [data-look="neo"].node circle{stroke:url(#d-architecture-dark-gradient);filter:drop-shadow( 1px 2px 2px rgba(185,185,185,1));}#d-architecture-dark [data-look="neo"].node circle .state-start{fill:#000000;}#d-architecture-dark [data-look="neo"].icon-shape .icon{fill:url(#d-architecture-dark-gradient);filter:drop-shadow( 1px 2px 2px rgba(185,185,185,1));}#d-architecture-dark [data-look="neo"].icon-shape .icon-neo path{stroke:url(#d-architecture-dark-gradient);filter:drop-shadow( 1px 2px 2px rgba(185,185,185,1));}#d-architecture-dark :root{--mermaid-font-family:"trebuchet ms",verdana,arial,sans-serif;}</style><g><marker id="d-architecture-dark_flowchart-v2-pointEnd" class="marker flowchart-v2" viewBox="0 0 10 10" refX="5" refY="5" markerUnits="userSpaceOnUse" markerWidth="8" markerHeight="8" orient="auto"><path d="M 0 0 L 10 5 L 0 10 z" class="arrowMarkerPath" style="stroke-width: 1; stroke-dasharray: 1, 0;"></path></marker><marker id="d-architecture-dark_flowchart-v2-pointStart" class="marker flowchart-v2" viewBox="0 0 10 10" refX="4.5" refY="5" markerUnits="userSpaceOnUse" markerWidth="8" markerHeight="8" orient="auto"><path d="M 0 5 L 10 10 L 10 0 z" class="arrowMarkerPath" style="stroke-width: 1; stroke-dasharray: 1, 0;"></path></marker><marker id="d-architecture-dark_flowchart-v2-pointEnd-margin" class="marker flowchart-v2" viewBox="0 0 11.5 14" refX="11.5" refY="7" markerUnits="userSpaceOnUse" markerWidth="10.5" markerHeight="14" orient="auto"><path d="M 0 0 L 11.5 7 L 0 14 z" class="arrowMarkerPath" style="stroke-width: 0; stroke-dasharray: 1, 0;"></path></marker><marker id="d-architecture-dark_flowchart-v2-pointStart-margin" class="marker flowchart-v2" viewBox="0 0 11.5 14" refX="1" refY="7" markerUnits="userSpaceOnUse" markerWidth="11.5" markerHeight="14" orient="auto"><polygon points="0,7 11.5,14 11.5,0" class="arrowMarkerPath" style="stroke-width: 0; stroke-dasharray: 1, 0;"></polygon></marker><marker id="d-architecture-dark_flowchart-v2-circleEnd" class="marker flowchart-v2" viewBox="0 0 10 10" refX="11" refY="5" markerUnits="userSpaceOnUse" markerWidth="11" markerHeight="11" orient="auto"><circle cx="5" cy="5" r="5" class="arrowMarkerPath" style="stroke-width: 1; stroke-dasharray: 1, 0;"></circle></marker><marker id="d-architecture-dark_flowchart-v2-circleStart" class="marker flowchart-v2" viewBox="0 0 10 10" refX="-1" refY="5" markerUnits="userSpaceOnUse" markerWidth="11" markerHeight="11" orient="auto"><circle cx="5" cy="5" r="5" class="arrowMarkerPath" style="stroke-width: 1; stroke-dasharray: 1, 0;"></circle></marker><marker id="d-architecture-dark_flowchart-v2-circleEnd-margin" class="marker flowchart-v2" viewBox="0 0 10 10" refY="5" refX="12.25" markerUnits="userSpaceOnUse" markerWidth="14" markerHeight="14" orient="auto"><circle cx="5" cy="5" r="5" class="arrowMarkerPath" style="stroke-width: 0; stroke-dasharray: 1, 0;"></circle></marker><marker id="d-architecture-dark_flowchart-v2-circleStart-margin" class="marker flowchart-v2" viewBox="0 0 10 10" refX="-2" refY="5" markerUnits="userSpaceOnUse" markerWidth="14" markerHeight="14" orient="auto"><circle cx="5" cy="5" r="5" class="arrowMarkerPath" style="stroke-width: 0; stroke-dasharray: 1, 0;"></circle></marker><marker id="d-architecture-dark_flowchart-v2-crossEnd" class="marker cross flowchart-v2" viewBox="0 0 11 11" refX="12" refY="5.2" markerUnits="userSpaceOnUse" markerWidth="11" markerHeight="11" orient="auto"><path d="M 1,1 l 9,9 M 10,1 l -9,9" class="arrowMarkerPath" style="stroke-width: 2; stroke-dasharray: 1, 0;"></path></marker><marker id="d-architecture-dark_flowchart-v2-crossStart" class="marker cross flowchart-v2" viewBox="0 0 11 11" refX="-1" refY="5.2" markerUnits="userSpaceOnUse" markerWidth="11" markerHeight="11" orient="auto"><path d="M 1,1 l 9,9 M 10,1 l -9,9" class="arrowMarkerPath" style="stroke-width: 2; stroke-dasharray: 1, 0;"></path></marker><marker id="d-architecture-dark_flowchart-v2-crossEnd-margin" class="marker cross flowchart-v2" viewBox="0 0 15 15" refX="17.7" refY="7.5" markerUnits="userSpaceOnUse" markerWidth="12" markerHeight="12" orient="auto"><path d="M 1,1 L 14,14 M 1,14 L 14,1" class="arrowMarkerPath" style="stroke-width: 2.5;"></path></marker><marker id="d-architecture-dark_flowchart-v2-crossStart-margin" class="marker cross flowchart-v2" viewBox="0 0 15 15" refX="-3.5" refY="7.5" markerUnits="userSpaceOnUse" markerWidth="12" markerHeight="12" orient="auto"><path d="M 1,1 L 14,14 M 1,14 L 14,1" class="arrowMarkerPath" style="stroke-width: 2.5; stroke-dasharray: 1, 0;"></path></marker><g class="root"><g class="clusters"><g class="cluster" id="d-architecture-dark-root" data-look="classic"><rect style="" x="708.7759628295898" y="8" width="290.71875" height="157.39999389648438"></rect><g class="cluster-label" transform="translate(838.0934295654297, 8)"><g><rect class="background" style="stroke: none"></rect><text y="-10.1" style=""><tspan class="text-outer-tspan row" x="0" y="-0.1em" dy="1.1em"><tspan font-style="normal" class="text-inner-tspan" font-weight="normal">root</tspan></tspan></text></g></g></g><g class="cluster" id="d-architecture-dark-unpriv" data-look="classic"><rect style="" x="263.37264251708984" y="8" width="258.484375" height="157.39999389648438"></rect><g class="cluster-label" transform="translate(342.26326751708984, 8)"><g><rect class="background" style="stroke: none"></rect><text y="-10.1" style=""><tspan class="text-outer-tspan row" x="0" y="-0.1em" dy="1.1em"><tspan font-style="normal" class="text-inner-tspan" font-weight="normal">Unprivileged</tspan></tspan></text></g></g></g></g><g class="edgePaths"><path d="M97.607,87.2L111.379,87.117C125.151,87.033,152.696,86.867,180.323,86.783C207.951,86.7,235.662,86.7,253.017,86.7C270.373,86.7,277.373,86.7,280.873,86.7L284.373,86.7" id="d-architecture-dark-L_B_W_0" class="edge-thickness-normal edge-pattern-solid edge-thickness-normal edge-pattern-solid flowchart-link" style=";" data-edge="true" data-et="edge" data-id="L_B_W_0" data-points="W3sieCI6OTcuNjA3MDE3NTY3MDI0OTEsInkiOjg3LjE5OTk5Njk0ODI0MjE5fSx7IngiOjE4MC4yMzk4MzAwMTcwODk4NCwieSI6ODYuNjk5OTk2OTQ4MjQyMTl9LHsieCI6MjYzLjM3MjY0MjUxNzA4OTg0LCJ5Ijo4Ni42OTk5OTY5NDgyNDIxOX0seyJ4IjoyODguMzcyNjQyNTE3MDg5ODQsInkiOjg2LjY5OTk5Njk0ODI0MjE5fV0=" data-look="classic" marker-end="url(#d-architecture-dark_flowchart-v2-pointEnd)"></path><path d="M500.857,86.7L504.357,86.7C507.857,86.7,514.857,86.7,533.934,86.7C553.01,86.7,584.163,86.7,615.316,86.7C646.47,86.7,677.623,86.7,696.699,86.7C715.776,86.7,722.776,86.7,726.276,86.7L729.776,86.7" id="d-architecture-dark-L_W_C_0" class="edge-thickness-normal edge-pattern-solid edge-thickness-normal edge-pattern-solid flowchart-link" style=";" data-edge="true" data-et="edge" data-id="L_W_C_0" data-points="W3sieCI6NDk2Ljg1NzAxNzUxNzA4OTg0LCJ5Ijo4Ni42OTk5OTY5NDgyNDIxOX0seyJ4Ijo1MjEuODU3MDE3NTE3MDg5OCwieSI6ODYuNjk5OTk2OTQ4MjQyMTl9LHsieCI6NjE1LjMxNjQ5MDE3MzMzOTgsInkiOjg2LjY5OTk5Njk0ODI0MjE5fSx7IngiOjcwOC43NzU5NjI4Mjk1ODk4LCJ5Ijo4Ni42OTk5OTY5NDgyNDIxOX0seyJ4Ijo3MzMuNzc1OTYyODI5NTg5OCwieSI6ODYuNjk5OTk2OTQ4MjQyMTl9XQ==" data-look="classic" marker-start="url(#d-architecture-dark_flowchart-v2-pointStart)" marker-end="url(#d-architecture-dark_flowchart-v2-pointEnd)"></path><path d="M974.495,86.7L978.661,86.7C982.828,86.7,991.161,86.7,1004.258,86.7C1017.355,86.7,1035.216,86.7,1052.41,86.7C1069.604,86.7,1086.131,86.7,1094.395,86.7L1102.659,86.7" id="d-architecture-dark-L_C_N_0" class="edge-thickness-normal edge-pattern-solid edge-thickness-normal edge-pattern-solid flowchart-link" style=";" data-edge="true" data-et="edge" data-id="L_C_N_0" data-points="W3sieCI6OTc0LjQ5NDcxMjgyOTU4OTgsInkiOjg2LjY5OTk5Njk0ODI0MjE5fSx7IngiOjk5OS40OTQ3MTI4Mjk1ODk4LCJ5Ijo4Ni42OTk5OTY5NDgyNDIxOX0seyJ4IjoxMDUzLjA3Njc0NDA3OTU4OTgsInkiOjg2LjY5OTk5Njk0ODI0MjE5fSx7IngiOjExMDYuNjU4Nzc1MzI5NTg5OCwieSI6ODYuNjk5OTk2OTQ4MjQyMTl9XQ==" data-look="classic" marker-end="url(#d-architecture-dark_flowchart-v2-pointEnd)"></path></g><g class="edgeLabels"><g class="edgeLabel" transform="translate(180.23983001708984, 86.69999694824219)"><g class="label" data-id="L_B_W_0" transform="translate(0, -11)"><g><rect class="background" style="" x="-58.1328125" y="-1" width="116.265625" height="24"></rect><text y="-10.1" text-anchor="middle" style=""><tspan class="text-outer-tspan row" x="0" y="-0.1em" dy="1.1em" text-anchor="middle"><tspan font-style="normal" class="text-inner-tspan" font-weight="normal">HTTPS</tspan><tspan font-style="normal" class="text-inner-tspan" font-weight="normal"> :12227</tspan></tspan></text></g></g></g><g class="edgeLabel" transform="translate(615.3164901733398, 86.69999694824219)"><g class="label" data-id="L_W_C_0" transform="translate(-0.24072265625, -20.350000381469727)"><g><rect class="background" style="" x="-68.21875" y="-1" width="136.9189453125" height="42.70000076293945"></rect><text y="-10.1" text-anchor="middle" style=""><tspan class="text-outer-tspan row" x="0" y="-0.1em" dy="1.1em" text-anchor="middle"><tspan font-style="normal" class="text-inner-tspan" font-weight="normal">typed</tspan><tspan font-style="normal" class="text-inner-tspan" font-weight="normal"> JSON</tspan></tspan><tspan class="text-outer-tspan row" x="0" y="1em" dy="1.1em" text-anchor="middle"><tspan font-style="normal" class="text-inner-tspan" font-weight="normal">over</tspan><tspan font-style="normal" class="text-inner-tspan" font-weight="normal"> Unix</tspan><tspan font-style="normal" class="text-inner-tspan" font-weight="normal"> socket</tspan></tspan></text></g></g></g><g class="edgeLabel" transform="translate(1053.0767440795898, 86.69999694824219)"><g class="label" data-id="L_C_N_0" transform="translate(-0.38671875, -11)"><g><rect class="background" style="" x="-28.1953125" y="-1" width="57.1640625" height="24"></rect><text y="-10.1" text-anchor="middle" style=""><tspan class="text-outer-tspan row" x="0" y="-0.1em" dy="1.1em" text-anchor="middle"><tspan font-style="normal" class="text-inner-tspan" font-weight="normal">netlink</tspan></tspan></text></g></g></g></g><g class="nodes"><g class="node default" id="d-architecture-dark-flowchart-W-0" data-look="classic" transform="translate(392.61483001708984, 86.69999694824219)"><rect class="basic label-container" style="" x="-104.2421875" y="-43.69999885559082" width="208.484375" height="87.39999771118164"></rect><g class="label" style="" transform="translate(0, -28.69999885559082)"><rect></rect><g><rect class="background" style="stroke: none"></rect><text y="-10.1" style=""><tspan class="text-outer-tspan row" x="0" y="-0.1em" dy="1.1em"><tspan font-style="normal" class="text-inner-tspan" font-weight="normal">easywall-web</tspan></tspan><tspan class="text-outer-tspan row" x="0" y="1em" dy="1.1em"><tspan font-style="normal" class="text-inner-tspan" font-weight="normal">HTTPS</tspan><tspan font-style="normal" class="text-inner-tspan" font-weight="normal"> ·</tspan><tspan font-style="normal" class="text-inner-tspan" font-weight="normal"> sessions</tspan><tspan font-style="normal" class="text-inner-tspan" font-weight="normal"> ·</tspan></tspan><tspan class="text-outer-tspan row" x="0" y="2.1em" dy="1.1em"><tspan font-style="normal" class="text-inner-tspan" font-weight="normal">templates</tspan></tspan></text></g></g></g><g class="node default" id="d-architecture-dark-flowchart-C-1" data-look="classic" transform="translate(854.1353378295898, 86.69999694824219)"><rect class="basic label-container" style="" x="-120.359375" y="-43.69999885559082" width="240.71875" height="87.39999771118164"></rect><g class="label" style="" transform="translate(0, -28.69999885559082)"><rect></rect><g><rect class="background" style="stroke: none"></rect><text y="-10.1" style=""><tspan class="text-outer-tspan row" x="0" y="-0.1em" dy="1.1em"><tspan font-style="normal" class="text-inner-tspan" font-weight="normal">easywall-core</tspan></tspan><tspan class="text-outer-tspan row" x="0" y="1em" dy="1.1em"><tspan font-style="normal" class="text-inner-tspan" font-weight="normal">rule</tspan><tspan font-style="normal" class="text-inner-tspan" font-weight="normal"> state</tspan><tspan font-style="normal" class="text-inner-tspan" font-weight="normal"> ·</tspan><tspan font-style="normal" class="text-inner-tspan" font-weight="normal"> acceptance</tspan></tspan><tspan class="text-outer-tspan row" x="0" y="2.1em" dy="1.1em"><tspan font-style="normal" class="text-inner-tspan" font-weight="normal">timer</tspan></tspan></text></g></g></g><g class="node default" id="d-architecture-dark-flowchart-B-2" data-look="classic" transform="translate(52.55350875854492, 86.69999694824219)"><g class="basic label-container outer-path"><path d="M-27.0625 -17.5 C-6.385494377337789 -17.5, 14.291511245324422 -17.5, 27.0625 -17.5 C27.0625 -17.5, 27.0625 -17.5, 27.0625 -17.5 C27.436059463038738 -17.488020675109734, 27.809618926077476 -17.476041350219464, 28.183728849662476 -17.464044373130886 C28.544031013605277 -17.429286456702073, 28.90433317754808 -17.394528540273264, 29.300350329478853 -17.35632524190681 C29.63128689556156 -17.302821984353958, 29.962223461644264 -17.249318726801103, 30.407776002274012 -17.177285247343644 C30.663434416665602 -17.11893288258583, 30.91909283105719 -17.06058051782802, 31.501455218416375 -16.927660103183015 C31.864757481973673 -16.819833898371705, 32.22805974553097 -16.712007693560395, 32.576893815413364 -16.6084755726867 C32.997733782961326 -16.453602574427034, 33.41857375050929 -16.298729576167368, 33.629672585389045 -16.22104325355538 C33.91354910087571 -16.09537954104707, 34.19742561636237 -15.969715828538762, 34.655465434557264 -15.766955188292336 C34.90536680297753 -15.636581804456949, 35.1552681713978 -15.506208420621562, 35.65005716006891 -15.248077322159316 C36.027668740853024 -15.019166962796021, 36.40528032163714 -14.790256603432725, 36.6093607711846 -14.666541835607212 C36.796734844744066 -14.535837793185042, 36.984108918303534 -14.405133750762872, 37.52943428359628 -14.024738382689241 C37.707478449324334 -13.882752898475351, 37.88552261505239 -13.740767414261459, 38.406496917886294 -13.325304271459855 C38.69580646549032 -13.062560995037042, 38.98511601309434 -12.799817718614232, 39.23694463556101 -12.571113626710233 C39.49157802269066 -12.308183748708988, 39.74621140982032 -12.045253870707743, 40.01736494881802 -11.765265579573047 C40.18516020092999 -11.568163728621998, 40.35295545304197 -11.371061877670948, 40.74455094319052 -10.911071532527838 C40.89187231936979 -10.713674309701085, 41.039193695549066 -10.51627708687433, 41.415514455446726 -10.012041552137973 C41.60604392329538 -9.71933712519664, 41.79657339114404 -9.426632698255307, 42.027498352593554 -9.071869945434191 C42.16084930956757 -8.83509181807819, 42.29420026654159 -8.598313690722192, 42.577987861527504 -8.094420079214617 C42.74457766031009 -7.748492797591888, 42.91116745909268 -7.40256551596916, 43.06472090277671 -7.083708504641896 C43.158983751363984 -6.850877446183144, 43.253246599951254 -6.618046387724393, 43.48569738587081 -6.043888452372892 C43.572381000897856 -5.782811215069872, 43.65906461592491 -5.521733977766852, 43.83918742814156 -4.979232766043073 C43.94773014316446 -4.565312350950472, 44.05627285818736 -4.15139193585787, 44.12373846318191 -3.894116344235504 C44.16732601869611 -3.670303458903222, 44.2109135742103 -3.44649057357094, 44.338181209752875 -2.792998163084143 C44.36825224443743 -2.559773156268216, 44.39832327912198 -2.326548149452289, 44.48163447661097 -1.680402953384434 C44.50212166698138 -1.3612984264028822, 44.52260885735179 -1.0421938994213304, 44.55350878351204 -0.5609026075039654 C44.55350878351204 -0.28318774252704615, 44.55350878351204 -0.005472877550126931, 44.55350878351204 0.5609026075039611 C44.539115256012295 0.7850934165587052, 44.52472172851255 1.0092842256134493, 44.48163447661097 1.680402953384422 C44.44834104870366 1.9386202057025446, 44.41504762079635 2.196837458020667, 44.338181209752875 2.792998163084131 C44.26094609834981 3.189584136492268, 44.18371098694676 3.5861701099004057, 44.12373846318191 3.8941163442355 C44.02153002051308 4.283881433550986, 43.919321577844265 4.673646522866472, 43.83918742814156 4.979232766043061 C43.717761049527915 5.344949671761245, 43.59633467091428 5.710666577479428, 43.48569738587081 6.04388845237288 C43.37325961174248 6.321611928306318, 43.26082183761416 6.5993354042397545, 43.06472090277672 7.0837085046418915 C42.96026901709247 7.30060508017756, 42.85581713140822 7.517501655713229, 42.577987861527504 8.094420079214613 C42.43792158046771 8.343121944485215, 42.297855299407914 8.59182380975582, 42.02749835259356 9.071869945434186 C41.884921361028304 9.290906491761382, 41.74234436946305 9.50994303808858, 41.41551445544673 10.012041552137964 C41.27157714516013 10.204904434963286, 41.12763983487353 10.397767317788608, 40.744550943190525 10.911071532527835 C40.52517846822195 11.168758924273364, 40.30580599325338 11.426446316018893, 40.01736494881803 11.765265579573038 C39.71251901944313 12.080044029968889, 39.40767309006822 12.39482248036474, 39.23694463556102 12.571113626710229 C38.93078402907933 12.849160588951152, 38.62462342259763 13.127207551192075, 38.40649691788631 13.325304271459842 C38.12038481626392 13.553471058740916, 37.834272714641536 13.78163784602199, 37.52943428359629 14.02473838268924 C37.34174282956773 14.155663815987472, 37.15405137553916 14.286589249285703, 36.60936077118461 14.666541835607207 C36.283937048557696 14.863815608665712, 35.958513325930774 15.061089381724218, 35.65005716006891 15.248077322159315 C35.33787645027818 15.41094179849585, 35.02569574048745 15.573806274832386, 34.65546543455727 15.766955188292332 C34.272696893266904 15.936395467096224, 33.889928351976536 16.105835745900116, 33.62967258538905 16.22104325355538 C33.38708554468174 16.310317526985692, 33.144498503974425 16.399591800416005, 32.57689381541337 16.608475572686697 C32.316062335629674 16.685888986754122, 32.05523085584597 16.763302400821548, 31.501455218416396 16.927660103183012 C31.079697534713954 17.023923542261997, 30.657939851011516 17.120186981340986, 30.40777600227402 17.177285247343644 C30.025967399244102 17.23901310131158, 29.644158796214185 17.30074095527952, 29.300350329478864 17.356325241906806 C28.935098239176547 17.39156067177836, 28.569846148874234 17.42679610164992, 28.183728849662476 17.464044373130886 C27.85183122992043 17.474687683796486, 27.519933610178377 17.48533099446209, 27.062500000000004 17.5 C27.062500000000004 17.5, 27.062500000000004 17.5, 27.0625 17.5 C7.766045152275645 17.5, -11.53040969544871 17.5, -27.062499999999996 17.5 C-27.35143497516653 17.49073441772422, -27.64036995033306 17.481468835448442, -28.18372884966247 17.464044373130886 C-28.472024144357828 17.436232872777445, -28.760319439053188 17.408421372424, -29.30035032947886 17.356325241906806 C-29.536889582825136 17.318083409815085, -29.773428836171412 17.279841577723367, -30.407776002274012 17.177285247343644 C-30.672807841058262 17.116793459635517, -30.937839679842508 17.05630167192739, -31.501455218416375 16.927660103183015 C-31.75131845994818 16.853502004655294, -32.001181701479986 16.779343906127576, -32.57689381541336 16.608475572686704 C-32.83544227217105 16.513327350604136, -33.093990728928745 16.41817912852157, -33.629672585389045 16.22104325355538 C-34.01747598434553 16.049374192616444, -34.405279383302016 15.87770513167751, -34.655465434557264 15.766955188292338 C-34.87960923645388 15.65001951041383, -35.10375303835049 15.533083832535326, -35.650057160068904 15.248077322159318 C-35.87503201782373 15.11169624128933, -36.10000687557855 14.975315160419342, -36.60936077118459 14.666541835607218 C-36.94303842834576 14.433782746644559, -37.276716085506926 14.2010236576819, -37.529434283596274 14.024738382689243 C-37.82262890666554 13.790923473028098, -38.115823529734804 13.557108563366954, -38.406496917886294 13.325304271459856 C-38.67603989478163 13.080512471559874, -38.94558287167696 12.835720671659894, -39.236944635561 12.571113626710241 C-39.448308078820645 12.352863518283247, -39.65967152208028 12.134613409856252, -40.01736494881803 11.765265579573043 C-40.28361769723891 11.452509951067299, -40.54987044565979 11.139754322561556, -40.74455094319052 10.91107153252784 C-40.88191020342438 10.727022637500504, -41.01926946365824 10.542973742473167, -41.415514455446726 10.012041552137974 C-41.543845097941194 9.814891223663883, -41.67217574043566 9.617740895189794, -42.027498352593554 9.071869945434198 C-42.20792023298036 8.751512627110932, -42.38834211336717 8.431155308787668, -42.577987861527504 8.094420079214618 C-42.70491576346224 7.830851575025098, -42.83184366539698 7.567283070835577, -43.06472090277671 7.083708504641898 C-43.22824253532821 6.6798069107640226, -43.3917641678797 6.2759053168861465, -43.48569738587081 6.043888452372894 C-43.5630829571082 5.810815441522229, -43.64046852834559 5.577742430671565, -43.83918742814156 4.979232766043068 C-43.95269377332795 4.546383877886166, -44.06620011851434 4.113534989729264, -44.12373846318191 3.8941163442355062 C-44.19713440939763 3.517243672656533, -44.27053035561334 3.1403710010775594, -44.338181209752875 2.7929981630841447 C-44.38682882701836 2.4156968501316314, -44.43547644428385 2.0383955371791185, -44.481634476610964 1.680402953384444 C-44.49964379411316 1.3998932964283097, -44.51765311161535 1.1193836394721755, -44.55350878351204 0.5609026075039676 C-44.55350878351204 0.2681629661396386, -44.55350878351204 -0.024576675224690425, -44.55350878351204 -0.560902607503959 C-44.52656426542477 -0.9805852259367074, -44.499619747337505 -1.4002678443694556, -44.48163447661097 -1.6804029533844198 C-44.43984902346703 -2.0044826764977777, -44.398063570323096 -2.3285623996111355, -44.338181209752875 -2.7929981630841367 C-44.264986071056526 -3.168839730491858, -44.19179093236017 -3.544681297899579, -44.12373846318191 -3.894116344235498 C-44.03905593791619 -4.217047514712296, -43.954373412650476 -4.539978685189094, -43.839187428141564 -4.979232766043059 C-43.767895389959115 -5.193953026204876, -43.69660335177666 -5.408673286366694, -43.48569738587081 -6.0438884523728715 C-43.349033847228505 -6.381450035029142, -43.212370308586195 -6.719011617685414, -43.06472090277672 -7.083708504641889 C-42.96549300237181 -7.289757362969642, -42.86626510196689 -7.495806221297395, -42.577987861527504 -8.094420079214611 C-42.435160412213285 -8.348024678319542, -42.292332962899074 -8.601629277424474, -42.027498352593554 -9.071869945434193 C-41.88709388276442 -9.287568914970931, -41.74668941293529 -9.503267884507668, -41.415514455446726 -10.012041552137969 C-41.2408264970543 -10.24610750198342, -41.066138538661875 -10.480173451828874, -40.744550943190525 -10.911071532527835 C-40.506033496777064 -11.19124769711226, -40.26751605036361 -11.471423861696687, -40.01736494881803 -11.765265579573038 C-39.82926253774627 -11.959496762499793, -39.6411601266745 -12.153727945426548, -39.236944635561024 -12.571113626710224 C-39.01402216363968 -12.773565917503795, -38.79109969171833 -12.976018208297369, -38.406496917886315 -13.32530427145984 C-38.18554307967886 -13.501509077601714, -37.96458924147141 -13.677713883743587, -37.52943428359629 -14.024738382689236 C-37.34126689562247 -14.155995806904832, -37.15309950764865 -14.28725323112043, -36.60936077118461 -14.666541835607205 C-36.40730154584669 -14.789031325438865, -36.205242320508766 -14.911520815270524, -35.65005716006891 -15.248077322159313 C-35.28405050802241 -15.439022758093522, -34.91804385597591 -15.629968194027732, -34.65546543455727 -15.766955188292332 C-34.30421620077576 -15.922442804649089, -33.95296696699425 -16.077930421005846, -33.62967258538906 -16.221043253555376 C-33.24739465303525 -16.361725066400048, -32.86511672068144 -16.502406879244717, -32.57689381541338 -16.608475572686697 C-32.1498686399336 -16.73521440326821, -31.72284346445382 -16.861953233849718, -31.501455218416396 -16.92766010318301 C-31.13299107168456 -17.011759640221285, -30.764526924952726 -17.095859177259563, -30.407776002274023 -17.17728524734364 C-30.063151711825657 -17.233001430022046, -29.718527421377292 -17.28871761270045, -29.300350329478867 -17.356325241906806 C-28.98205472114927 -17.387030836435887, -28.663759112819676 -17.41773643096497, -28.183728849662476 -17.464044373130886 C-27.75545356270792 -17.477778327996244, -27.32717827575336 -17.4915122828616, -27.062500000000007 -17.5 C-27.062500000000004 -17.5, -27.0625 -17.5, -27.0625 -17.5" stroke="none" stroke-width="0" fill="#181b22" style=""></path><path d="M-27.0625 -17.5 C-12.392207469153407 -17.5, 2.2780850616931865 -17.5, 27.0625 -17.5 M-27.0625 -17.5 C-10.928639483379087 -17.5, 5.205221033241827 -17.5, 27.0625 -17.5 M27.0625 -17.5 C27.0625 -17.5, 27.0625 -17.5, 27.0625 -17.5 M27.0625 -17.5 C27.0625 -17.5, 27.0625 -17.5, 27.0625 -17.5 M27.0625 -17.5 C27.38076390963545 -17.48979389588111, 27.6990278192709 -17.47958779176222, 28.183728849662476 -17.464044373130886 M27.0625 -17.5 C27.432640052658435 -17.48813032894515, 27.802780105316867 -17.4762606578903, 28.183728849662476 -17.464044373130886 M28.183728849662476 -17.464044373130886 C28.498061324507056 -17.43372109732274, 28.812393799351636 -17.403397821514595, 29.300350329478853 -17.35632524190681 M28.183728849662476 -17.464044373130886 C28.50267430424041 -17.433276088715782, 28.821619758818343 -17.40250780430068, 29.300350329478853 -17.35632524190681 M29.300350329478853 -17.35632524190681 C29.600157324887803 -17.30785477192706, 29.899964320296757 -17.259384301947318, 30.407776002274012 -17.177285247343644 M29.300350329478853 -17.35632524190681 C29.535150035505584 -17.318364646335322, 29.76994974153232 -17.280404050763835, 30.407776002274012 -17.177285247343644 M30.407776002274012 -17.177285247343644 C30.787126551677765 -17.09070095993592, 31.16647710108152 -17.004116672528195, 31.501455218416375 -16.927660103183015 M30.407776002274012 -17.177285247343644 C30.659933267381113 -17.119731997062882, 30.912090532488214 -17.06217874678212, 31.501455218416375 -16.927660103183015 M31.501455218416375 -16.927660103183015 C31.858160190689713 -16.821791939794895, 32.21486516296305 -16.71592377640678, 32.576893815413364 -16.6084755726867 M31.501455218416375 -16.927660103183015 C31.78102991789458 -16.844683799895428, 32.06060461737278 -16.76170749660784, 32.576893815413364 -16.6084755726867 M32.576893815413364 -16.6084755726867 C32.8293401282493 -16.515572995974942, 33.081786441085235 -16.42267041926318, 33.629672585389045 -16.22104325355538 M32.576893815413364 -16.6084755726867 C32.94928798077222 -16.471431077460714, 33.32168214613107 -16.334386582234725, 33.629672585389045 -16.22104325355538 M33.629672585389045 -16.22104325355538 C34.03936956627223 -16.03968255334753, 34.449066547155404 -15.85832185313968, 34.655465434557264 -15.766955188292336 M33.629672585389045 -16.22104325355538 C33.92010080817108 -16.0924792945769, 34.21052903095312 -15.963915335598424, 34.655465434557264 -15.766955188292336 M34.655465434557264 -15.766955188292336 C34.9583548699811 -15.608937963841663, 35.26124430540494 -15.450920739390993, 35.65005716006891 -15.248077322159316 M34.655465434557264 -15.766955188292336 C34.96939407695874 -15.603178816632377, 35.28332271936022 -15.43940244497242, 35.65005716006891 -15.248077322159316 M35.65005716006891 -15.248077322159316 C35.906406255104386 -15.092676994274312, 36.16275535013986 -14.937276666389309, 36.6093607711846 -14.666541835607212 M35.65005716006891 -15.248077322159316 C35.98313069406008 -15.04616618849652, 36.316204228051255 -14.84425505483372, 36.6093607711846 -14.666541835607212 M36.6093607711846 -14.666541835607212 C36.930667597627995 -14.442412102628643, 37.251974424071385 -14.21828236965007, 37.52943428359628 -14.024738382689241 M36.6093607711846 -14.666541835607212 C36.84942979840742 -14.499080074637266, 37.08949882563024 -14.33161831366732, 37.52943428359628 -14.024738382689241 M37.52943428359628 -14.024738382689241 C37.76521742476097 -13.836707602063301, 38.00100056592565 -13.64867682143736, 38.406496917886294 -13.325304271459855 M37.52943428359628 -14.024738382689241 C37.762342732688495 -13.839000092492325, 37.995251181780716 -13.653261802295411, 38.406496917886294 -13.325304271459855 M38.406496917886294 -13.325304271459855 C38.71821465358038 -13.042210471501814, 39.02993238927447 -12.759116671543774, 39.23694463556101 -12.571113626710233 M38.406496917886294 -13.325304271459855 C38.60760639609361 -13.14266196441718, 38.80871587430092 -12.960019657374506, 39.23694463556101 -12.571113626710233 M39.23694463556101 -12.571113626710233 C39.40317493479125 -12.399467194993628, 39.569405234021495 -12.227820763277021, 40.01736494881802 -11.765265579573047 M39.23694463556101 -12.571113626710233 C39.465017017049014 -12.33561016773311, 39.69308939853702 -12.100106708755987, 40.01736494881802 -11.765265579573047 M40.01736494881802 -11.765265579573047 C40.23303178742863 -11.511931039150262, 40.44869862603924 -11.25859649872748, 40.74455094319052 -10.911071532527838 M40.01736494881802 -11.765265579573047 C40.1969166284796 -11.554353959862558, 40.37646830814117 -11.34344234015207, 40.74455094319052 -10.911071532527838 M40.74455094319052 -10.911071532527838 C40.961282480080776 -10.620671017744087, 41.17801401697104 -10.330270502960337, 41.415514455446726 -10.012041552137973 M40.74455094319052 -10.911071532527838 C40.932966544958354 -10.658611791173378, 41.12138214672619 -10.406152049818918, 41.415514455446726 -10.012041552137973 M41.415514455446726 -10.012041552137973 C41.63795765561475 -9.670309062317044, 41.86040085578277 -9.328576572496116, 42.027498352593554 -9.071869945434191 M41.415514455446726 -10.012041552137973 C41.58974763062973 -9.744372606898379, 41.763980805812736 -9.476703661658785, 42.027498352593554 -9.071869945434191 M42.027498352593554 -9.071869945434191 C42.176493201739156 -8.807314503411684, 42.32548805088476 -8.542759061389177, 42.577987861527504 -8.094420079214617 M42.027498352593554 -9.071869945434191 C42.1749450637746 -8.810063379133718, 42.32239177495565 -8.548256812833245, 42.577987861527504 -8.094420079214617 M42.577987861527504 -8.094420079214617 C42.745226499691135 -7.747145468734213, 42.91246513785477 -7.39987085825381, 43.06472090277671 -7.083708504641896 M42.577987861527504 -8.094420079214617 C42.69250129302902 -7.856630488506795, 42.80701472453054 -7.6188408977989726, 43.06472090277671 -7.083708504641896 M43.06472090277671 -7.083708504641896 C43.170194024187 -6.823187855574416, 43.27566714559728 -6.562667206506935, 43.48569738587081 -6.043888452372892 M43.06472090277671 -7.083708504641896 C43.18467729022103 -6.787413908455459, 43.30463367766535 -6.4911193122690225, 43.48569738587081 -6.043888452372892 M43.48569738587081 -6.043888452372892 C43.57748311121182 -5.767444471715096, 43.66926883655284 -5.491000491057299, 43.83918742814156 -4.979232766043073 M43.48569738587081 -6.043888452372892 C43.61160169655021 -5.664684728734207, 43.73750600722962 -5.285481005095521, 43.83918742814156 -4.979232766043073 M43.83918742814156 -4.979232766043073 C43.913010833666476 -4.697712125510195, 43.9868342391914 -4.416191484977317, 44.12373846318191 -3.894116344235504 M43.83918742814156 -4.979232766043073 C43.91428709295099 -4.692845195724066, 43.989386757760435 -4.406457625405061, 44.12373846318191 -3.894116344235504 M44.12373846318191 -3.894116344235504 C44.183665195330846 -3.586405240170029, 44.243591927479784 -3.278694136104553, 44.338181209752875 -2.792998163084143 M44.12373846318191 -3.894116344235504 C44.208178542216025 -3.4605343848123393, 44.29261862125014 -3.0269524253891746, 44.338181209752875 -2.792998163084143 M44.338181209752875 -2.792998163084143 C44.369365178533414 -2.551141459193452, 44.400549147313946 -2.309284755302761, 44.48163447661097 -1.680402953384434 M44.338181209752875 -2.792998163084143 C44.37974351890217 -2.4706491007285187, 44.42130582805145 -2.1483000383728945, 44.48163447661097 -1.680402953384434 M44.48163447661097 -1.680402953384434 C44.49913592107592 -1.4078038289311412, 44.516637365540866 -1.1352047044778484, 44.55350878351204 -0.5609026075039654 M44.48163447661097 -1.680402953384434 C44.49676719625724 -1.4446986299823568, 44.511899915903506 -1.2089943065802795, 44.55350878351204 -0.5609026075039654 M44.55350878351204 -0.5609026075039654 C44.55350878351204 -0.20970685072769163, 44.55350878351204 0.1414889060485821, 44.55350878351204 0.5609026075039611 M44.55350878351204 -0.5609026075039654 C44.55350878351204 -0.26909682937285667, 44.55350878351204 0.022708948758252023, 44.55350878351204 0.5609026075039611 M44.55350878351204 0.5609026075039611 C44.52718252371367 0.9709553540380289, 44.500856263915296 1.3810081005720969, 44.48163447661097 1.680402953384422 M44.55350878351204 0.5609026075039611 C44.53626608880842 0.8294714955654916, 44.5190233941048 1.0980403836270218, 44.48163447661097 1.680402953384422 M44.48163447661097 1.680402953384422 C44.437862296850106 2.019891335815094, 44.39409011708925 2.3593797182457656, 44.338181209752875 2.792998163084131 M44.48163447661097 1.680402953384422 C44.42653753680769 2.1077239383772244, 44.37144059700442 2.5350449233700267, 44.338181209752875 2.792998163084131 M44.338181209752875 2.792998163084131 C44.28712014379884 3.0551859449980077, 44.2360590778448 3.317373726911884, 44.12373846318191 3.8941163442355 M44.338181209752875 2.792998163084131 C44.27530676785666 3.1158451337031714, 44.21243232596046 3.438692104322212, 44.12373846318191 3.8941163442355 M44.12373846318191 3.8941163442355 C44.05830889312633 4.1436276522124675, 43.992879323070746 4.393138960189436, 43.83918742814156 4.979232766043061 M44.12373846318191 3.8941163442355 C44.039098202834445 4.21688634026125, 43.95445794248699 4.539656336287, 43.83918742814156 4.979232766043061 M43.83918742814156 4.979232766043061 C43.7195692218761 5.339503744741661, 43.59995101561064 5.699774723440262, 43.48569738587081 6.04388845237288 M43.83918742814156 4.979232766043061 C43.76333496298489 5.207688305645841, 43.687482497828235 5.436143845248623, 43.48569738587081 6.04388845237288 M43.48569738587081 6.04388845237288 C43.31819528080216 6.457621890325344, 43.15069317573351 6.871355328277807, 43.06472090277672 7.0837085046418915 M43.48569738587081 6.04388845237288 C43.36333802829573 6.346118431240573, 43.24097867072065 6.648348410108264, 43.06472090277672 7.0837085046418915 M43.06472090277672 7.0837085046418915 C42.88939854465223 7.447769132584911, 42.71407618652774 7.811829760527932, 42.577987861527504 8.094420079214613 M43.06472090277672 7.0837085046418915 C42.9029979439646 7.419529688932247, 42.74127498515248 7.755350873222603, 42.577987861527504 8.094420079214613 M42.577987861527504 8.094420079214613 C42.428558084942985 8.359747778946105, 42.27912830835846 8.625075478677598, 42.02749835259356 9.071869945434186 M42.577987861527504 8.094420079214613 C42.41004089913075 8.392626917424117, 42.242093936733994 8.69083375563362, 42.02749835259356 9.071869945434186 M42.02749835259356 9.071869945434186 C41.882377842231534 9.294814019663654, 41.7372573318695 9.517758093893121, 41.41551445544673 10.012041552137964 M42.02749835259356 9.071869945434186 C41.87202060766027 9.310725513272013, 41.71654286272698 9.54958108110984, 41.41551445544673 10.012041552137964 M41.41551445544673 10.012041552137964 C41.20516214654251 10.293894482580043, 40.9948098376383 10.575747413022121, 40.744550943190525 10.911071532527835 M41.41551445544673 10.012041552137964 C41.22666786221642 10.26507878278801, 41.037821268986114 10.518116013438055, 40.744550943190525 10.911071532527835 M40.744550943190525 10.911071532527835 C40.560996808948154 11.126684663135045, 40.377442674705776 11.342297793742256, 40.01736494881803 11.765265579573038 M40.744550943190525 10.911071532527835 C40.476216253153304 11.22627272812196, 40.20788156311608 11.541473923716087, 40.01736494881803 11.765265579573038 M40.01736494881803 11.765265579573038 C39.85668506293168 11.931180753814656, 39.69600517704534 12.097095928056275, 39.23694463556102 12.571113626710229 M40.01736494881803 11.765265579573038 C39.7280547674274 12.064002094666494, 39.438744586036776 12.36273860975995, 39.23694463556102 12.571113626710229 M39.23694463556102 12.571113626710229 C38.91696264305352 12.86171280604595, 38.59698065054603 13.152311985381672, 38.40649691788631 13.325304271459842 M39.23694463556102 12.571113626710229 C38.916462406970076 12.862167107221417, 38.59598017837913 13.153220587732605, 38.40649691788631 13.325304271459842 M38.40649691788631 13.325304271459842 C38.17303743093266 13.51148199968752, 37.939577943979 13.697659727915198, 37.52943428359629 14.02473838268924 M38.40649691788631 13.325304271459842 C38.11446178727452 13.558194516741542, 37.82242665666273 13.791084762023244, 37.52943428359629 14.02473838268924 M37.52943428359629 14.02473838268924 C37.33481415586536 14.160496958824794, 37.14019402813443 14.296255534960347, 36.60936077118461 14.666541835607207 M37.52943428359629 14.02473838268924 C37.18211559327524 14.267012865873424, 36.83479690295419 14.509287349057606, 36.60936077118461 14.666541835607207 M36.60936077118461 14.666541835607207 C36.2797707583362 14.866341238281821, 35.950180745487785 15.066140640956435, 35.65005716006891 15.248077322159315 M36.60936077118461 14.666541835607207 C36.2952269984147 14.856971574715287, 35.981093225644784 15.047401313823364, 35.65005716006891 15.248077322159315 M35.65005716006891 15.248077322159315 C35.32158796759591 15.419439489477922, 34.9931187751229 15.590801656796529, 34.65546543455727 15.766955188292332 M35.65005716006891 15.248077322159315 C35.43874312628619 15.35831971823066, 35.22742909250347 15.468562114302008, 34.65546543455727 15.766955188292332 M34.65546543455727 15.766955188292332 C34.359463165761305 15.897986612092978, 34.06346089696534 16.029018035893625, 33.62967258538905 16.22104325355538 M34.65546543455727 15.766955188292332 C34.33374151121386 15.90937282555536, 34.012017587870446 16.05179046281839, 33.62967258538905 16.22104325355538 M33.62967258538905 16.22104325355538 C33.35452338543413 16.322300702590113, 33.0793741854792 16.423558151624846, 32.57689381541337 16.608475572686697 M33.62967258538905 16.22104325355538 C33.229405533294866 16.36834522875411, 32.82913848120068 16.515647203952838, 32.57689381541337 16.608475572686697 M32.57689381541337 16.608475572686697 C32.22875257881547 16.711802064278313, 31.88061134221756 16.815128555869933, 31.501455218416396 16.927660103183012 M32.57689381541337 16.608475572686697 C32.155540100825895 16.73353114344548, 31.734186386238417 16.858586714204264, 31.501455218416396 16.927660103183012 M31.501455218416396 16.927660103183012 C31.078811358332583 17.024125806238207, 30.65616749824877 17.1205915092934, 30.40777600227402 17.177285247343644 M31.501455218416396 16.927660103183012 C31.241187635922863 16.98706448048246, 30.980920053429333 17.04646885778191, 30.40777600227402 17.177285247343644 M30.40777600227402 17.177285247343644 C30.164617662716623 17.2165972019622, 29.921459323159226 17.25590915658075, 29.300350329478864 17.356325241906806 M30.40777600227402 17.177285247343644 C30.14954610794125 17.219033854056626, 29.891316213608484 17.260782460769608, 29.300350329478864 17.356325241906806 M29.300350329478864 17.356325241906806 C28.867708592802053 17.398061669916203, 28.435066856125246 17.4397980979256, 28.183728849662476 17.464044373130886 M29.300350329478864 17.356325241906806 C28.868453282029428 17.397989830642057, 28.436556234579992 17.43965441937731, 28.183728849662476 17.464044373130886 M28.183728849662476 17.464044373130886 C27.934925028663287 17.472023027403072, 27.686121207664097 17.480001681675255, 27.062500000000004 17.5 M28.183728849662476 17.464044373130886 C27.81880923344312 17.4757466349501, 27.45388961722376 17.48744889676931, 27.062500000000004 17.5 M27.062500000000004 17.5 C27.062500000000004 17.5, 27.0625 17.5, 27.0625 17.5 M27.062500000000004 17.5 C27.062500000000004 17.5, 27.062500000000004 17.5, 27.0625 17.5 M27.0625 17.5 C10.6272089128793 17.5, -5.808082174241399 17.5, -27.062499999999996 17.5 M27.0625 17.5 C6.991296798783658 17.5, -13.079906402432684 17.5, -27.062499999999996 17.5 M-27.062499999999996 17.5 C-27.292738556971962 17.492616697610075, -27.522977113943927 17.485233395220146, -28.18372884966247 17.464044373130886 M-27.062499999999996 17.5 C-27.43934197462143 17.487915411352297, -27.816183949242866 17.475830822704594, -28.18372884966247 17.464044373130886 M-28.18372884966247 17.464044373130886 C-28.4680091535354 17.43662019411335, -28.752289457408335 17.409196015095816, -29.30035032947886 17.356325241906806 M-28.18372884966247 17.464044373130886 C-28.580103408187906 17.425806596180088, -28.976477966713343 17.38756881922929, -29.30035032947886 17.356325241906806 M-29.30035032947886 17.356325241906806 C-29.555111352706454 17.31513745537261, -29.809872375934052 17.273949668838416, -30.407776002274012 17.177285247343644 M-29.30035032947886 17.356325241906806 C-29.714996307026833 17.28928849588443, -30.129642284574807 17.222251749862057, -30.407776002274012 17.177285247343644 M-30.407776002274012 17.177285247343644 C-30.794204463623988 17.089085472721887, -31.18063292497396 17.000885698100127, -31.501455218416375 16.927660103183015 M-30.407776002274012 17.177285247343644 C-30.777980340415827 17.09278852297185, -31.14818467855764 17.008291798600055, -31.501455218416375 16.927660103183015 M-31.501455218416375 16.927660103183015 C-31.75145492740588 16.853461501830182, -32.00145463639539 16.77926290047735, -32.57689381541336 16.608475572686704 M-31.501455218416375 16.927660103183015 C-31.80687020644695 16.837014537891527, -32.11228519447752 16.74636897260004, -32.57689381541336 16.608475572686704 M-32.57689381541336 16.608475572686704 C-32.92682111910732 16.47969909023479, -33.27674842280129 16.35092260778287, -33.629672585389045 16.22104325355538 M-32.57689381541336 16.608475572686704 C-32.864410213431306 16.50266688044365, -33.151926611449255 16.396858188200593, -33.629672585389045 16.22104325355538 M-33.629672585389045 16.22104325355538 C-33.93730691510249 16.084862661439395, -34.244941244815934 15.948682069323413, -34.655465434557264 15.766955188292338 M-33.629672585389045 16.22104325355538 C-33.971647115637104 16.069661273328578, -34.313621645885156 15.918279293101778, -34.655465434557264 15.766955188292338 M-34.655465434557264 15.766955188292338 C-34.88192667883687 15.648810502207017, -35.108387923116474 15.530665816121697, -35.650057160068904 15.248077322159318 M-34.655465434557264 15.766955188292338 C-34.90142526155745 15.638638104091127, -35.14738508855764 15.510321019889918, -35.650057160068904 15.248077322159318 M-35.650057160068904 15.248077322159318 C-35.920082167471215 15.084386575828956, -36.190107174873525 14.920695829498596, -36.60936077118459 14.666541835607218 M-35.650057160068904 15.248077322159318 C-35.96028334175705 15.060016387728561, -36.27050952344519 14.871955453297806, -36.60936077118459 14.666541835607218 M-36.60936077118459 14.666541835607218 C-36.93210134249224 14.441411984277158, -37.254841913799886 14.216282132947098, -37.529434283596274 14.024738382689243 M-36.60936077118459 14.666541835607218 C-36.88064025414578 14.477309011793036, -37.15191973710697 14.288076187978852, -37.529434283596274 14.024738382689243 M-37.529434283596274 14.024738382689243 C-37.74892341424545 13.849701641847592, -37.968412544894626 13.674664901005942, -38.406496917886294 13.325304271459856 M-37.529434283596274 14.024738382689243 C-37.70632785007127 13.883670470760936, -37.88322141654626 13.74260255883263, -38.406496917886294 13.325304271459856 M-38.406496917886294 13.325304271459856 C-38.653377385172874 13.1010939631694, -38.900257852459454 12.876883654878943, -39.236944635561 12.571113626710241 M-38.406496917886294 13.325304271459856 C-38.70411107076738 13.055018972252228, -39.00172522364848 12.784733673044599, -39.236944635561 12.571113626710241 M-39.236944635561 12.571113626710241 C-39.42694925781549 12.374918254562886, -39.61695388006997 12.178722882415528, -40.01736494881803 11.765265579573043 M-39.236944635561 12.571113626710241 C-39.45715242612016 12.343731003562075, -39.67736021667932 12.11634838041391, -40.01736494881803 11.765265579573043 M-40.01736494881803 11.765265579573043 C-40.26981895101182 11.468718743556545, -40.52227295320561 11.172171907540049, -40.74455094319052 10.91107153252784 M-40.01736494881803 11.765265579573043 C-40.245266251262855 11.497559741769875, -40.473167553707675 11.229853903966706, -40.74455094319052 10.91107153252784 M-40.74455094319052 10.91107153252784 C-40.89266471197587 10.71261257579739, -41.040778480761226 10.51415361906694, -41.415514455446726 10.012041552137974 M-40.74455094319052 10.91107153252784 C-41.001370617624815 10.566956565539542, -41.25819029205911 10.222841598551243, -41.415514455446726 10.012041552137974 M-41.415514455446726 10.012041552137974 C-41.58301949055177 9.754708836816707, -41.75052452565682 9.497376121495439, -42.027498352593554 9.071869945434198 M-41.415514455446726 10.012041552137974 C-41.570163591799975 9.774458949591644, -41.72481272815323 9.536876347045313, -42.027498352593554 9.071869945434198 M-42.027498352593554 9.071869945434198 C-42.14605050604113 8.861368592280746, -42.2646026594887 8.650867239127294, -42.577987861527504 8.094420079214618 M-42.027498352593554 9.071869945434198 C-42.15527848015769 8.84498338980309, -42.28305860772182 8.618096834171983, -42.577987861527504 8.094420079214618 M-42.577987861527504 8.094420079214618 C-42.69748884147547 7.846273737441309, -42.81698982142343 7.5981273956679996, -43.06472090277671 7.083708504641898 M-42.577987861527504 8.094420079214618 C-42.70829705387591 7.823830253133091, -42.838606246224316 7.553240427051564, -43.06472090277671 7.083708504641898 M-43.06472090277671 7.083708504641898 C-43.22041246596996 6.699147333462983, -43.37610402916321 6.314586162284068, -43.48569738587081 6.043888452372894 M-43.06472090277671 7.083708504641898 C-43.15457499247953 6.861767165865294, -43.24442908218235 6.639825827088691, -43.48569738587081 6.043888452372894 M-43.48569738587081 6.043888452372894 C-43.56594031598189 5.8022095318529825, -43.646183246092974 5.56053061133307, -43.83918742814156 4.979232766043068 M-43.48569738587081 6.043888452372894 C-43.59529091972632 5.713810189758421, -43.70488445358182 5.383731927143949, -43.83918742814156 4.979232766043068 M-43.83918742814156 4.979232766043068 C-43.94268328366464 4.584558213546016, -44.04617913918773 4.189883661048963, -44.12373846318191 3.8941163442355062 M-43.83918742814156 4.979232766043068 C-43.952401319380826 4.547499131536896, -44.06561521062009 4.115765497030726, -44.12373846318191 3.8941163442355062 M-44.12373846318191 3.8941163442355062 C-44.18399685052868 3.5847022608245176, -44.24425523787545 3.275288177413529, -44.338181209752875 2.7929981630841447 M-44.12373846318191 3.8941163442355062 C-44.189185077831326 3.5580618101576746, -44.254631692480736 3.222007276079843, -44.338181209752875 2.7929981630841447 M-44.338181209752875 2.7929981630841447 C-44.39336897845562 2.3649727270832255, -44.448556747158364 1.9369472910823062, -44.481634476610964 1.680402953384444 M-44.338181209752875 2.7929981630841447 C-44.39120504806136 2.3817557439047503, -44.444228886369835 1.970513324725356, -44.481634476610964 1.680402953384444 M-44.481634476610964 1.680402953384444 C-44.50138005878835 1.3728495726246293, -44.521125640965735 1.0652961918648145, -44.55350878351204 0.5609026075039676 M-44.481634476610964 1.680402953384444 C-44.502472120182254 1.3558398349184655, -44.523309763753545 1.0312767164524872, -44.55350878351204 0.5609026075039676 M-44.55350878351204 0.5609026075039676 C-44.55350878351204 0.23418775272389714, -44.55350878351204 -0.09252710205617332, -44.55350878351204 -0.560902607503959 M-44.55350878351204 0.5609026075039676 C-44.55350878351204 0.33199981773833553, -44.55350878351204 0.10309702797270354, -44.55350878351204 -0.560902607503959 M-44.55350878351204 -0.560902607503959 C-44.5271975584702 -0.9707211755691598, -44.50088633342837 -1.3805397436343605, -44.48163447661097 -1.6804029533844198 M-44.55350878351204 -0.560902607503959 C-44.528991330883706 -0.9427817223218011, -44.504473878255375 -1.324660837139643, -44.48163447661097 -1.6804029533844198 M-44.48163447661097 -1.6804029533844198 C-44.424500406616474 -2.123523517863503, -44.36736633662197 -2.5666440823425862, -44.338181209752875 -2.7929981630841367 M-44.48163447661097 -1.6804029533844198 C-44.4502997616166 -1.9234288151413892, -44.41896504662223 -2.1664546768983586, -44.338181209752875 -2.7929981630841367 M-44.338181209752875 -2.7929981630841367 C-44.26510431940912 -3.168232550193064, -44.19202742906537 -3.5434669373019916, -44.12373846318191 -3.894116344235498 M-44.338181209752875 -2.7929981630841367 C-44.26627157875742 -3.162238920139905, -44.19436194776196 -3.531479677195673, -44.12373846318191 -3.894116344235498 M-44.12373846318191 -3.894116344235498 C-44.063147115347945 -4.125177413982663, -44.00255576751399 -4.356238483729829, -43.839187428141564 -4.979232766043059 M-44.12373846318191 -3.894116344235498 C-44.05396788352324 -4.160181803234495, -43.98419730386458 -4.426247262233492, -43.839187428141564 -4.979232766043059 M-43.839187428141564 -4.979232766043059 C-43.718861789034676 -5.341634419745918, -43.59853614992779 -5.704036073448777, -43.48569738587081 -6.0438884523728715 M-43.839187428141564 -4.979232766043059 C-43.72263078426614 -5.330282806616591, -43.60607414039072 -5.681332847190122, -43.48569738587081 -6.0438884523728715 M-43.48569738587081 -6.0438884523728715 C-43.33772570773918 -6.409381358195764, -43.189754029607556 -6.774874264018656, -43.06472090277672 -7.083708504641889 M-43.48569738587081 -6.0438884523728715 C-43.351061966025355 -6.376440542389903, -43.2164265461799 -6.708992632406936, -43.06472090277672 -7.083708504641889 M-43.06472090277672 -7.083708504641889 C-42.94627093065442 -7.3296724061772425, -42.82782095853212 -7.575636307712596, -42.577987861527504 -8.094420079214611 M-43.06472090277672 -7.083708504641889 C-42.87893238606934 -7.469502334822208, -42.693143869361954 -7.855296165002526, -42.577987861527504 -8.094420079214611 M-42.577987861527504 -8.094420079214611 C-42.456445948163335 -8.310230053845993, -42.334904034799166 -8.526040028477375, -42.027498352593554 -9.071869945434193 M-42.577987861527504 -8.094420079214611 C-42.3821087724816 -8.442223236724205, -42.18622968343569 -8.790026394233799, -42.027498352593554 -9.071869945434193 M-42.027498352593554 -9.071869945434193 C-41.90004872263846 -9.267666802062813, -41.772599092683365 -9.463463658691433, -41.415514455446726 -10.012041552137969 M-42.027498352593554 -9.071869945434193 C-41.83227320597727 -9.371788195928897, -41.63704805936099 -9.671706446423602, -41.415514455446726 -10.012041552137969 M-41.415514455446726 -10.012041552137969 C-41.20414718966975 -10.295254432325075, -40.99277992389277 -10.578467312512181, -40.744550943190525 -10.911071532527835 M-41.415514455446726 -10.012041552137969 C-41.23246424326954 -10.257312160238008, -41.049414031092354 -10.502582768338048, -40.744550943190525 -10.911071532527835 M-40.744550943190525 -10.911071532527835 C-40.54322218533468 -11.147563747436166, -40.34189342747883 -11.384055962344497, -40.01736494881803 -11.765265579573038 M-40.744550943190525 -10.911071532527835 C-40.51449207885151 -11.181311765300665, -40.2844332145125 -11.451551998073494, -40.01736494881803 -11.765265579573038 M-40.01736494881803 -11.765265579573038 C-39.72468011928217 -12.067486695940211, -39.43199528974631 -12.369707812307384, -39.236944635561024 -12.571113626710224 M-40.01736494881803 -11.765265579573038 C-39.79103546691603 -11.998969351632894, -39.56470598501403 -12.232673123692749, -39.236944635561024 -12.571113626710224 M-39.236944635561024 -12.571113626710224 C-38.96304378750894 -12.819863129891816, -38.68914293945685 -13.068612633073409, -38.406496917886315 -13.32530427145984 M-39.236944635561024 -12.571113626710224 C-39.041237571094385 -12.748849604533651, -38.84553050662775 -12.926585582357077, -38.406496917886315 -13.32530427145984 M-38.406496917886315 -13.32530427145984 C-38.212469472248635 -13.480035996068716, -38.018442026610956 -13.634767720677594, -37.52943428359629 -14.024738382689236 M-38.406496917886315 -13.32530427145984 C-38.16417571044085 -13.518548985959452, -37.92185450299539 -13.711793700459062, -37.52943428359629 -14.024738382689236 M-37.52943428359629 -14.024738382689236 C-37.25020328867335 -14.219517837032528, -36.97097229375041 -14.41429729137582, -36.60936077118461 -14.666541835607205 M-37.52943428359629 -14.024738382689236 C-37.296044473573794 -14.187541010878887, -37.06265466355131 -14.350343639068535, -36.60936077118461 -14.666541835607205 M-36.60936077118461 -14.666541835607205 C-36.28529742791035 -14.862990938707652, -35.96123408463609 -15.0594400418081, -35.65005716006891 -15.248077322159313 M-36.60936077118461 -14.666541835607205 C-36.41083431384913 -14.786889740714937, -36.21230785651365 -14.907237645822667, -35.65005716006891 -15.248077322159313 M-35.65005716006891 -15.248077322159313 C-35.36509087680361 -15.396744049609204, -35.08012459353831 -15.545410777059097, -34.65546543455727 -15.766955188292332 M-35.65005716006891 -15.248077322159313 C-35.31723646394196 -15.421709666146914, -34.98441576781501 -15.595342010134514, -34.65546543455727 -15.766955188292332 M-34.65546543455727 -15.766955188292332 C-34.39462676500644 -15.882420729798266, -34.133788095455614 -15.9978862713042, -33.62967258538906 -16.221043253555376 M-34.65546543455727 -15.766955188292332 C-34.344360171115476 -15.904672259808267, -34.03325490767369 -16.042389331324202, -33.62967258538906 -16.221043253555376 M-33.62967258538906 -16.221043253555376 C-33.268371359829025 -16.354005444393387, -32.90707013426899 -16.486967635231395, -32.57689381541338 -16.608475572686697 M-33.62967258538906 -16.221043253555376 C-33.34512090884987 -16.32576090088866, -33.06056923231068 -16.43047854822195, -32.57689381541338 -16.608475572686697 M-32.57689381541338 -16.608475572686697 C-32.243200954763154 -16.707513862138114, -31.909508094112926 -16.806552151589532, -31.501455218416396 -16.92766010318301 M-32.57689381541338 -16.608475572686697 C-32.182137121315385 -16.72563728737481, -31.787380427217396 -16.84279900206292, -31.501455218416396 -16.92766010318301 M-31.501455218416396 -16.92766010318301 C-31.269234453216892 -16.980662977457683, -31.037013688017392 -17.033665851732355, -30.407776002274023 -17.17728524734364 M-31.501455218416396 -16.92766010318301 C-31.19450051062356 -16.99772051217006, -30.887545802830726 -17.06778092115711, -30.407776002274023 -17.17728524734364 M-30.407776002274023 -17.17728524734364 C-29.971117629209214 -17.2478807867645, -29.534459256144405 -17.318476326185362, -29.300350329478867 -17.356325241906806 M-30.407776002274023 -17.17728524734364 C-30.17368255047866 -17.215131661208083, -29.939589098683292 -17.252978075072527, -29.300350329478867 -17.356325241906806 M-29.300350329478867 -17.356325241906806 C-28.98438391825547 -17.38680614159232, -28.66841750703208 -17.417287041277834, -28.183728849662476 -17.464044373130886 M-29.300350329478867 -17.356325241906806 C-28.894356730707813 -17.395490956101508, -28.488363131936755 -17.434656670296214, -28.183728849662476 -17.464044373130886 M-28.183728849662476 -17.464044373130886 C-27.90198168684638 -17.473079456254816, -27.620234524030288 -17.482114539378742, -27.062500000000007 -17.5 M-28.183728849662476 -17.464044373130886 C-27.825216617845086 -17.475541162603545, -27.466704386027697 -17.4870379520762, -27.062500000000007 -17.5 M-27.062500000000007 -17.5 C-27.062500000000004 -17.5, -27.062500000000004 -17.5, -27.0625 -17.5 M-27.062500000000007 -17.5 C-27.062500000000004 -17.5, -27.0625 -17.5, -27.0625 -17.5" stroke="#5e636e" stroke-width="1.3" fill="none" stroke-dasharray="0 0" style=""></path></g><g class="label" style="" transform="translate(0, -10)"><rect></rect><g><rect class="background" style="stroke: none"></rect><text y="-10.1" style=""><tspan class="text-outer-tspan row" x="0" y="-0.1em" dy="1.1em"><tspan font-style="normal" class="text-inner-tspan" font-weight="normal">Browser</tspan></tspan></text></g></g></g><g class="node default" id="d-architecture-dark-flowchart-N-7" data-look="classic" transform="translate(1165.4790878295898, 86.69999694824219)"><path d="M0,12.120870629145468 a58.8203125,12.120870629145468 0,0,0 117.640625,0 a58.8203125,12.120870629145468 0,0,0 -117.640625,0 l0,65.82087139208492 a58.8203125,12.120870629145468 0,0,0 117.640625,0 l0,-65.82087139208492" class="basic label-container outer-path" style="" transform="translate(-58.8203125, -45.03130632518793)"></path><g class="label" style="" transform="translate(0, -10.350000381469727)"><rect></rect><g><rect class="background" style="stroke: none"></rect><text y="-10.1" style=""><tspan class="text-outer-tspan row" x="0" y="-0.1em" dy="1.1em"><tspan font-style="normal" class="text-inner-tspan" font-weight="normal">nftables</tspan></tspan><tspan class="text-outer-tspan row" x="0" y="1em" dy="1.1em"><tspan font-style="normal" class="text-inner-tspan" font-weight="normal">inet</tspan><tspan font-style="normal" class="text-inner-tspan" font-weight="normal"> easywall</tspan></tspan></text></g></g></g></g></g></g><defs><filter id="d-architecture-dark-drop-shadow" height="130%" width="130%"><feDropShadow dx="4" dy="4" stdDeviation="0" flood-opacity="0.06" flood-color="#000000"></feDropShadow></filter></defs><defs><filter id="d-architecture-dark-drop-shadow-small" height="150%" width="150%"><feDropShadow dx="2" dy="2" stdDeviation="0" flood-opacity="0.06" flood-color="#000000"></feDropShadow></filter></defs><linearGradient id="d-architecture-dark-gradient" gradientUnits="objectBoundingBox" x1="0%" y1="0%" x2="100%" y2="0%"><stop offset="0%" stop-color="#5e636e" stop-opacity="1"></stop><stop offset="100%" stop-color="hsl(222.8571428571, 0%, 0%)" stop-opacity="1"></stop></linearGradient></svg>